<svg width="20" height="18" viewBox="0 0 20 18" fill="none" xmlns="http://www.w3.org/2000/svg">
<path d="M5.88572 0C2.70759 0 0 2.5812 0 5.93354C0 8.24617 0.996967 10.1932 2.31827 11.806C3.63504 13.4134 5.33388 14.7625 6.86968 15.8917L9.51953 17.84C9.80973 18.0533 10.1903 18.0533 10.4805 17.84L13.1303 15.8917C14.6661 14.7625 16.365 13.4134 17.6817 11.806C19.003 10.1932 20 8.24617 20 5.93354C20 2.5812 17.2924 0 14.1143 0C12.476 0 11.0345 0.834379 10 1.914C8.96553 0.834379 7.52397 0 5.88572 0Z" fill="#FF2929"/>
</svg>
