<svg width="293" height="71" viewBox="0 0 293 71" fill="none" xmlns="http://www.w3.org/2000/svg">
<path d="M91.3321 49H97.7643V33.1264L103.708 49H108.898L114.804 33.164V49H121.236V22.5942H113.676L106.341 40.8751L98.9304 22.5942H91.3321V49ZM146.373 38.5054C146.373 31.8475 141.633 27.7098 135.464 27.7098C129.333 27.7098 124.556 31.8475 124.556 38.5054C124.556 45.1633 129.22 49.3009 135.389 49.3009C141.558 49.3009 146.373 45.1633 146.373 38.5054ZM131.101 38.5054C131.101 34.9319 133.132 33.2769 135.464 33.2769C137.721 33.2769 139.828 34.9319 139.828 38.5054C139.828 42.0412 137.684 43.7339 135.389 43.7339C133.057 43.7339 131.101 42.0412 131.101 38.5054ZM147.765 28.0108L155.212 49H163.149L170.597 28.0108H163.751L159.2 42.9816L154.648 28.0108H147.765ZM173.277 49H179.71V28.0108H173.277V49ZM176.512 25.8291C178.769 25.8291 180.311 24.2869 180.311 22.3685C180.311 20.4125 178.769 18.8703 176.512 18.8703C174.218 18.8703 172.676 20.4125 172.676 22.3685C172.676 24.2869 174.218 25.8291 176.512 25.8291ZM193.597 32.8631C195.741 32.8631 197.547 34.1796 197.547 36.4742H189.497C189.874 34.142 191.491 32.8631 193.597 32.8631ZM203.641 42.0412H196.795C196.268 43.1697 195.252 44.0724 193.447 44.0724C191.378 44.0724 189.685 42.7935 189.46 40.0476H204.017C204.092 39.4081 204.13 38.7687 204.13 38.1668C204.13 31.7723 199.804 27.7098 193.673 27.7098C187.429 27.7098 183.065 31.8475 183.065 38.5054C183.065 45.1633 187.504 49.3009 193.673 49.3009C198.901 49.3009 202.625 46.1413 203.641 42.0412ZM212.8 49H220.586L224.949 31.6218L229.162 49H236.949L243.832 22.5942H236.911L233.074 41.8155L228.561 22.5942H221.489L216.787 41.8155L212.988 22.5942H206.104L212.8 49ZM245.752 38.4678C245.752 45.088 249.852 49.3009 254.968 49.3009C258.09 49.3009 260.309 47.8715 261.475 46.0284V49H267.908V28.0108H261.475V30.9824C260.347 29.1392 258.128 27.7098 255.006 27.7098C249.852 27.7098 245.752 31.8475 245.752 38.4678ZM261.475 38.5054C261.475 41.8531 259.331 43.6963 256.886 43.6963C254.479 43.6963 252.297 41.8155 252.297 38.4678C252.297 35.12 254.479 33.3145 256.886 33.3145C259.331 33.3145 261.475 35.1576 261.475 38.5054ZM272.534 49H278.966V21.1648H272.534V49ZM283.601 49H290.033V21.1648H283.601V49Z" fill="black"/>
<path fill-rule="evenodd" clip-rule="evenodd" d="M35.4999 11.0928L57.0177 11.7012C60.8198 11.8087 63.9646 14.695 64.397 18.474C65.3541 26.839 65.3541 35.2859 64.397 43.6509C63.9646 47.4299 60.8198 50.3162 57.0177 50.4237L40.677 50.8857V56.9479H50.2916C51.517 56.9479 52.5104 57.9413 52.5104 59.1667C52.5104 60.392 51.517 61.3854 50.2916 61.3854H20.7083C19.4829 61.3854 18.4895 60.392 18.4895 59.1667C18.4895 57.9413 19.4829 56.9479 20.7083 56.9479H30.3229V50.8857L13.9821 50.4237C10.18 50.3162 7.03521 47.4299 6.60283 43.6509C5.64574 35.2859 5.64574 26.839 6.60283 18.474C7.03521 14.695 10.18 11.8087 13.9821 11.7012L35.4999 11.0928ZM35.4999 15.5321L14.1075 16.137C12.5123 16.1821 11.193 17.393 11.0116 18.9784C10.0928 27.0083 10.0928 35.1167 11.0116 43.1465C11.193 44.732 12.5123 45.9429 14.1075 45.988L35.4999 46.5928L56.8923 45.988C58.4875 45.9429 59.8068 44.7319 59.9882 43.1465C60.907 35.1167 60.907 27.0083 59.9882 18.9784C59.8068 17.393 58.4875 16.1821 56.8923 16.137L35.4999 15.5321Z" fill="black"/>
<path d="M48.6409 31.5464C48.8381 31.4369 48.9605 31.229 48.9605 31.0034C48.9605 30.7777 48.8381 30.5699 48.6409 30.4603L45.8051 28.8848C40.2182 25.781 34.3287 23.2562 28.2284 21.3499L27.402 21.0916C27.2134 21.0327 27.0079 21.067 26.8487 21.1841C26.6895 21.3011 26.5955 21.487 26.5955 21.6846V28.829C26.5955 29.1594 26.8541 29.432 27.1841 29.4494L28.4385 29.5154C31.4971 29.6764 34.537 30.0912 37.5268 30.7556L37.8229 30.8214C37.8888 30.8361 37.9173 30.863 37.9332 30.8844C37.9532 30.9114 37.9689 30.9529 37.9689 31.0034C37.9689 31.0538 37.9532 31.0954 37.9332 31.1223C37.9173 31.1437 37.8888 31.1707 37.8229 31.1853L37.5269 31.2511C34.537 31.9155 31.4971 32.3303 28.4385 32.4913L27.1841 32.5573C26.8541 32.5747 26.5955 32.8473 26.5955 33.1777V40.3221C26.5955 40.5197 26.6895 40.7056 26.8487 40.8226C27.0079 40.9397 27.2134 40.974 27.402 40.9151L28.2284 40.6568C34.3287 38.7505 40.2182 36.2257 45.8051 33.1219L48.6409 31.5464Z" fill="black"/>
</svg>
