<svg width="22" height="20" viewBox="0 0 22 20" fill="none" xmlns="http://www.w3.org/2000/svg">
<path d="M6.88571 1C3.70759 1 1 3.5812 1 6.93354C1 9.24617 1.99697 11.1932 3.31828 12.806C4.63504 14.4134 6.33388 15.7625 7.86968 16.8917L10.5195 18.84C10.8097 19.0533 11.1903 19.0533 11.4805 18.84L14.1303 16.8917C15.6661 15.7625 17.365 14.4134 18.6817 12.806C20.003 11.1932 21 9.24617 21 6.93354C21 3.5812 18.2924 1 15.1143 1C13.476 1 12.0345 1.83438 11 2.914C9.96553 1.83438 8.52397 1 6.88571 1Z" stroke="black" stroke-width="2" stroke-linecap="round" stroke-linejoin="round"/>
</svg>
