<svg width="66" height="66" viewBox="0 0 66 66" fill="none" xmlns="http://www.w3.org/2000/svg">
<circle cx="33" cy="33" r="33" fill="#ECF5FF"/>
<path d="M21.0914 31.9958H46.9175C47.2945 31.9958 47.604 32.1167 47.8459 32.3586C48.0878 32.6005 48.2088 32.91 48.2088 33.2871C48.2088 33.6641 48.0878 33.9736 47.8459 34.2155C47.604 34.4574 47.2945 34.5784 46.9175 34.5784H21.0914C20.7143 34.5784 20.4049 34.4574 20.163 34.2155C19.921 33.9736 19.8001 33.6641 19.8001 33.2871C19.8001 32.91 19.921 32.6005 20.163 32.3586C20.4049 32.1167 20.7143 31.9958 21.0914 31.9958ZM21.6157 33.2871L32.3503 43.9804C32.5922 44.2498 32.7131 44.5593 32.7131 44.9088C32.7131 45.2583 32.5853 45.5609 32.3296 45.8166C32.0739 46.0723 31.7713 46.2001 31.4218 46.2001C31.0723 46.2001 30.7628 46.0792 30.4934 45.8373L18.8716 34.2155C18.6297 33.9461 18.5088 33.6366 18.5088 33.2871C18.5088 32.9376 18.6297 32.6281 18.8716 32.3586L30.4934 20.7369C30.7628 20.495 31.0723 20.374 31.4218 20.374C31.7713 20.374 32.0739 20.5019 32.3296 20.7575C32.5853 21.0132 32.7131 21.3158 32.7131 21.6653C32.7131 22.0148 32.5922 22.3243 32.3503 22.5938L21.6157 33.2871Z" fill="black"/>
</svg>
