<svg width="12" height="12" viewBox="0 0 12 12" fill="none" xmlns="http://www.w3.org/2000/svg">
<path d="M0.5 5C0.354 5 0.234167 4.95317 0.1405 4.8595C0.0468334 4.76583 0 4.646 0 4.5V0.5C0 0.354 0.0468334 0.234167 0.1405 0.1405C0.234167 0.0468334 0.354 0 0.5 0H4.5C4.646 0 4.76583 0.0468334 4.8595 0.1405C4.95317 0.234167 5 0.354 5 0.5V4.5C5 4.646 4.95317 4.76583 4.8595 4.8595C4.76583 4.95317 4.646 5 4.5 5H0.5ZM7.5 5C7.354 5 7.23417 4.95317 7.1405 4.8595C7.04683 4.76583 7 4.646 7 4.5V0.5C7 0.354 7.04683 0.234167 7.1405 0.1405C7.23417 0.0468334 7.354 0 7.5 0H11.5C11.646 0 11.7658 0.0468334 11.8595 0.1405C11.9532 0.234167 12 0.354 12 0.5V4.5C12 4.646 11.9532 4.76583 11.8595 4.8595C11.7658 4.95317 11.646 5 11.5 5H7.5ZM0.5 12C0.354 12 0.234167 11.9532 0.1405 11.8595C0.0468334 11.7658 0 11.646 0 11.5V7.5C0 7.354 0.0468334 7.23417 0.1405 7.1405C0.234167 7.04683 0.354 7 0.5 7H4.5C4.646 7 4.76583 7.04683 4.8595 7.1405C4.95317 7.23417 5 7.354 5 7.5V11.5C5 11.646 4.95317 11.7658 4.8595 11.8595C4.76583 11.9532 4.646 12 4.5 12H0.5ZM7.5 12C7.354 12 7.23417 11.9532 7.1405 11.8595C7.04683 11.7658 7 11.646 7 11.5V7.5C7 7.354 7.04683 7.23417 7.1405 7.1405C7.23417 7.04683 7.354 7 7.5 7H11.5C11.646 7 11.7658 7.04683 11.8595 7.1405C11.9532 7.23417 12 7.354 12 7.5V11.5C12 11.646 11.9532 11.7658 11.8595 11.8595C11.7658 11.9532 11.646 12 11.5 12H7.5Z" fill="black"/>
</svg>
