<svg width="40" height="40" viewBox="0 0 40 40" fill="none" xmlns="http://www.w3.org/2000/svg">
<path d="M19.9999 3.13892C24.7833 3.26458 28.7672 4.9196 31.9515 8.10396C35.1359 11.2883 36.7909 15.2722 36.9166 20.0556C36.7909 24.839 35.1359 28.8228 31.9515 32.0072C28.7672 35.1916 24.7833 36.8466 19.9999 36.9723C15.2165 36.8466 11.2327 35.1916 8.04829 32.0072C4.86393 28.8228 3.20892 24.839 3.08325 20.0556C3.20892 15.2722 4.86393 11.2883 8.04829 8.10396C11.2327 4.9196 15.2165 3.26458 19.9999 3.13892V3.13892ZM19.9999 10.3889C19.345 10.3889 18.8037 10.6282 18.3759 11.1067C17.9482 11.5852 17.7593 12.1515 17.8092 12.8056L18.678 22.4722C18.7288 22.8251 18.8734 23.1082 19.1118 23.3217C19.3502 23.5352 19.6459 23.6423 19.9987 23.6431C20.3515 23.6439 20.6472 23.5368 20.8856 23.3217C21.1241 23.1066 21.2687 22.8235 21.3194 22.4722L22.1882 12.8056C22.239 12.1507 22.0501 11.5844 21.6215 11.1067C21.1929 10.629 20.6516 10.3897 19.9975 10.3889H19.9999ZM19.9999 29.7223C20.5541 29.6973 21.0137 29.5084 21.3786 29.1555C21.7435 28.8027 21.926 28.3496 21.926 27.7962C21.926 27.2428 21.7435 26.7832 21.3786 26.4175C21.0137 26.0517 20.5541 25.8693 19.9999 25.8701C19.4457 25.8709 18.9861 26.0533 18.6212 26.4175C18.2563 26.7816 18.0738 27.2411 18.0738 27.7962C18.0738 28.3512 18.2563 28.8043 18.6212 29.1555C18.9861 29.5068 19.4457 29.6957 19.9999 29.7223V29.7223Z" fill="#58E387"/>
</svg>
