<svg width="1920" height="1080" viewBox="0 0 1920 1080" fill="none" xmlns="http://www.w3.org/2000/svg">
<g clip-path="url(#clip0_4_9270)">
<rect width="1920" height="1080" fill="white"/>
<path d="M2127.43 1503.03L2221 1127.35L1928.17 882L1526.31 1019.29L1481 1319.93L1648.58 1503.03H2127.43Z" fill="#409EFF"/>
<path d="M233.432 268.026L327 -107.653L34.1681 -353L-367.694 -215.707L-413 84.9274L-245.422 268.026H233.432Z" fill="#409EFF"/>
<path d="M793.102 527.791C797.818 525.069 799.434 519.038 796.711 514.322C793.988 509.607 787.958 507.991 783.242 510.713C778.526 513.436 776.91 519.466 779.633 524.182C782.356 528.898 788.386 530.514 793.102 527.791Z" fill="#FFD0C7"/>
<path d="M770.005 547.147C774.721 544.424 776.337 538.394 773.614 533.678C770.892 528.962 764.861 527.346 760.145 530.069C755.43 532.792 753.814 538.822 756.537 543.538C759.259 548.254 765.289 549.87 770.005 547.147Z" fill="#FFD0C7"/>
<path d="M453.357 438.617C456.519 441.703 458.472 445.82 458.86 450.221C459.01 452.177 458.592 454.134 457.657 455.858C456.722 457.582 455.309 459 453.589 459.941C443.487 465.774 432.624 450.703 435.45 441.159C437.308 434.684 445.862 431.25 453.357 438.617Z" fill="#FFD0C7"/>
<path d="M760.557 438.132C758.083 438.325 754.472 443.034 752.449 453.233C750.517 464.026 750.295 475.055 751.79 485.917C753.294 496.009 756.576 500.29 759.139 500.585C743.098 500.275 650.801 495.363 634.815 494.481L629.474 505.283C627.171 494.61 616.879 467.091 613.35 456.701C612.745 451.107 612.187 445.794 611.818 441.145L626.581 425.404C642.974 425.588 733.907 434.221 760.557 438.132Z" fill="#FFD0C7"/>
<path d="M535.267 504.484C545.318 436.93 547.372 420.5 552.99 410.579C558.901 400.027 563.678 394.798 657.311 299.212C655.69 301.152 656.796 306.611 662.483 315.524C668.639 325.045 675.889 333.812 684.086 341.645C691.763 348.791 696.894 350.46 699.023 348.999C680.916 367.172 651.941 398.605 611.81 441.265C615.567 485.408 630.793 574.415 595.537 600.251C589.094 602.929 581.938 605.709 575.832 607.768C599.734 592.347 594.705 588.381 590.346 590.859C581.054 596.224 560.731 607.147 559.294 608.401C556.634 611.347 554.379 614.635 552.588 618.178C546.733 599.212 542.012 601.397 542.973 606.67C543.682 610.744 544.049 614.869 544.072 619.003C533.59 617.202 523.469 613.713 514.103 608.673C519.197 589.02 508.083 563.018 497.396 553.866C503.919 545.044 534.104 505.812 535.267 504.484Z" fill="#FFD0C7"/>
<path d="M865.172 577.418C825.831 530.469 843.978 552.141 804.109 504.61C800.637 500.486 795.671 497.909 790.301 497.442C784.93 496.976 779.594 498.658 775.463 502.121L526.456 710.955C526.335 711.058 526.236 711.183 526.163 711.324C526.091 711.465 526.047 711.619 526.034 711.777C526.021 711.935 526.04 712.094 526.089 712.245C526.138 712.395 526.216 712.535 526.319 712.656L523.312 715.202L527.255 717.286L513.998 724.94C513.897 724.747 513.744 724.584 513.557 724.471C513.37 724.358 513.156 724.297 512.937 724.296C512.718 724.296 512.504 724.355 512.316 724.467C512.128 724.579 511.975 724.74 511.872 724.933C509.897 728.529 509.05 732.635 509.439 736.719C509.829 740.802 511.437 744.675 514.055 747.833C536.265 774.337 561.556 804.505 575.118 820.641C578.591 824.766 583.557 827.347 588.929 827.819C594.301 828.29 599.641 826.615 603.78 823.159L862.633 605.977C866.731 602.509 869.295 597.566 869.771 592.219C870.246 586.873 868.593 581.554 865.172 577.418ZM783.871 511.47C785.411 510.58 787.18 510.168 788.954 510.284C790.729 510.401 792.429 511.04 793.84 512.123C795.251 513.206 796.309 514.682 796.88 516.366C797.452 518.05 797.511 519.865 797.051 521.583C796.591 523.301 795.632 524.843 794.295 526.016C792.958 527.188 791.303 527.938 789.54 528.17C787.777 528.402 785.985 528.106 784.39 527.32C782.795 526.533 781.469 525.291 780.58 523.751C779.388 521.686 779.065 519.232 779.682 516.929C780.299 514.626 781.806 512.662 783.871 511.47ZM760.733 530.888C762.273 529.998 764.042 529.586 765.817 529.702C767.591 529.819 769.291 530.458 770.702 531.541C772.113 532.623 773.171 534.1 773.742 535.784C774.314 537.468 774.373 539.283 773.913 541.001C773.453 542.719 772.494 544.261 771.157 545.434C769.82 546.606 768.165 547.356 766.402 547.588C764.639 547.82 762.847 547.524 761.252 546.738C759.657 545.951 758.331 544.709 757.442 543.169C756.847 542.148 756.461 541.019 756.304 539.847C756.148 538.676 756.225 537.485 756.531 536.343C756.836 535.202 757.365 534.132 758.087 533.195C758.808 532.259 759.707 531.475 760.733 530.888ZM860.971 604.235L602.251 821.379C600.452 822.89 598.373 824.031 596.133 824.738C593.893 825.445 591.535 825.704 589.195 825.499C586.855 825.295 584.578 824.631 582.494 823.547C580.411 822.462 578.561 820.977 577.052 819.178L530.505 763.691L816.771 523.466L863.305 578.998C866.348 582.634 867.824 587.329 867.412 592.052C866.999 596.776 864.731 601.143 861.104 604.197L860.971 604.235Z" fill="#409EFF"/>
<path d="M588.352 796.637C588.098 796.779 587.803 796.827 587.518 796.773C587.233 796.718 586.976 796.566 586.792 796.341L563.439 768.528C563.335 768.405 563.257 768.263 563.209 768.109C563.161 767.956 563.145 767.794 563.16 767.634C563.176 767.474 563.223 767.319 563.3 767.177C563.376 767.036 563.48 766.911 563.606 766.811C832.879 540.603 814.218 556.278 814.956 556.354C815.695 556.429 813.686 554.154 839.028 584.678C839.136 584.796 839.218 584.935 839.269 585.087C839.32 585.238 839.34 585.398 839.328 585.558C839.315 585.717 839.269 585.872 839.194 586.013C839.119 586.154 839.016 586.279 838.891 586.378C579.382 804.363 588.641 796.47 588.352 796.637ZM566.082 767.89L587.888 793.895L836.519 585.278L814.712 559.273L566.082 767.89Z" fill="#409EFF"/>
<path d="M584.231 760.422C584.161 760.331 584.072 760.256 583.971 760.201C583.87 760.146 583.759 760.113 583.645 760.103C583.531 760.093 583.415 760.107 583.306 760.143C583.197 760.18 583.097 760.238 583.012 760.315C573.071 768.833 573.495 768.164 573.464 768.645C573.433 769.126 572.628 767.932 587.783 786.159C587.939 786.333 588.156 786.439 588.389 786.456C588.622 786.472 588.852 786.398 589.031 786.249C598.972 777.731 598.519 778.417 598.579 777.919C598.639 777.421 599.444 778.616 584.231 760.422Z" fill="#409EFF"/>
<path d="M611.292 766.449L597.163 749.598C597.011 749.415 596.792 749.3 596.555 749.278C596.318 749.256 596.082 749.328 595.898 749.479C585.991 758.055 586.411 757.311 586.367 757.838C586.324 758.364 585.502 757.141 600.715 775.335C600.845 775.485 601.023 775.585 601.219 775.62C601.414 775.654 601.616 775.621 601.789 775.525C602.079 775.358 603.516 774.104 611.186 767.668C611.354 767.516 611.458 767.306 611.477 767.08C611.497 766.854 611.431 766.629 611.292 766.449Z" fill="#409EFF"/>
<path d="M610.021 738.778C609.873 738.603 609.662 738.494 609.433 738.474C609.205 738.454 608.978 738.525 608.802 738.671C598.844 747.161 599.285 746.52 599.242 747.047C599.198 747.574 598.417 746.288 613.572 764.515C613.729 764.689 613.946 764.795 614.179 764.812C614.411 764.828 614.641 764.754 614.821 764.605C624.762 756.087 624.325 756.802 624.369 756.275C624.412 755.749 625.234 756.972 610.021 738.778Z" fill="#409EFF"/>
<path d="M622.924 727.971C622.854 727.88 622.765 727.805 622.664 727.75C622.564 727.695 622.452 727.662 622.338 727.652C622.224 727.642 622.108 727.655 621.999 727.692C621.891 727.728 621.79 727.787 621.705 727.864C611.748 736.353 612.188 735.713 612.128 736.211C612.068 736.708 611.292 735.497 626.476 753.708C626.624 753.883 626.835 753.992 627.064 754.012C627.292 754.032 627.519 753.961 627.695 753.814C637.665 745.28 637.212 745.966 637.272 745.468C637.332 744.97 638.137 746.165 622.924 727.971Z" fill="#409EFF"/>
<path d="M635.81 717.135C635.662 716.96 635.451 716.85 635.223 716.83C634.994 716.81 634.767 716.881 634.591 717.028C624.571 725.476 625.074 724.877 625.031 725.403C624.988 725.93 624.178 724.661 639.362 742.872C639.51 743.047 639.721 743.156 639.949 743.176C640.178 743.196 640.405 743.125 640.581 742.978C650.522 734.46 650.098 735.13 650.158 734.632C650.218 734.134 651.023 735.329 635.81 717.135Z" fill="#409EFF"/>
<path d="M662.843 723.179L648.713 706.327C648.643 706.237 648.554 706.162 648.454 706.107C648.353 706.052 648.241 706.018 648.127 706.008C648.013 705.998 647.897 706.012 647.788 706.049C647.68 706.085 647.579 706.144 647.494 706.221L638.226 713.965C638.136 714.04 638.062 714.132 638.009 714.236C637.956 714.34 637.924 714.453 637.915 714.57C637.907 714.686 637.922 714.803 637.96 714.914C637.998 715.024 638.058 715.126 638.136 715.213C653.452 733.386 652.341 732.33 652.867 732.373C653.394 732.416 653.001 732.604 662.736 724.398C662.827 724.328 662.902 724.239 662.957 724.138C663.011 724.037 663.045 723.926 663.055 723.812C663.065 723.697 663.051 723.582 663.015 723.473C662.978 723.364 662.92 723.264 662.843 723.179Z" fill="#409EFF"/>
<path d="M661.617 695.52C661.546 695.429 661.457 695.353 661.355 695.296C661.254 695.24 661.143 695.204 661.028 695.192C660.912 695.179 660.796 695.19 660.685 695.223C660.574 695.256 660.471 695.311 660.381 695.384C650.474 703.96 650.864 703.233 650.821 703.76C650.778 704.286 649.968 703.017 665.152 721.228C665.301 721.405 665.513 721.518 665.743 721.543C665.973 721.568 666.204 721.504 666.388 721.364C676.312 712.817 675.905 713.515 675.948 712.988C675.991 712.461 676.813 713.685 661.617 695.52Z" fill="#409EFF"/>
<path d="M674.486 684.655C674.334 684.487 674.123 684.383 673.897 684.363C673.671 684.343 673.446 684.409 673.267 684.548C663.247 692.996 663.75 692.397 663.69 692.895C663.63 693.393 662.854 692.181 678.038 710.392C678.108 710.483 678.197 710.558 678.298 710.613C678.398 710.668 678.51 710.701 678.624 710.711C678.738 710.721 678.854 710.707 678.963 710.671C679.072 710.634 679.172 710.576 679.257 710.499C689.198 701.981 688.774 702.65 688.834 702.152C688.894 701.654 689.629 702.928 674.486 684.655Z" fill="#409EFF"/>
<path d="M687.406 673.876C687.331 673.787 687.239 673.713 687.135 673.66C687.031 673.606 686.918 673.574 686.801 673.566C686.685 673.558 686.568 673.573 686.457 673.611C686.347 673.649 686.245 673.708 686.158 673.786C676.2 682.276 676.67 681.619 676.61 682.116C676.55 682.614 675.774 681.403 690.958 699.614C691.106 699.789 691.317 699.898 691.545 699.918C691.774 699.938 692.001 699.867 692.177 699.72C702.101 691.173 701.694 691.871 701.737 691.345C701.78 690.818 702.532 692.121 687.406 673.876Z" fill="#409EFF"/>
<path d="M714.421 679.892L700.292 663.04C700.144 662.865 699.933 662.756 699.705 662.736C699.476 662.716 699.249 662.787 699.073 662.934C689.182 671.538 689.556 670.782 689.496 671.28C689.436 671.778 688.631 670.583 703.844 688.777C703.971 688.936 704.15 689.045 704.35 689.085C704.549 689.125 704.756 689.093 704.935 688.996C705.254 688.813 706.645 687.546 714.315 681.111C714.406 681.04 714.481 680.952 714.536 680.851C714.59 680.75 714.624 680.639 714.634 680.524C714.644 680.41 714.63 680.295 714.594 680.186C714.557 680.077 714.498 679.977 714.421 679.892Z" fill="#409EFF"/>
<path d="M713.195 652.233C713.121 652.143 713.028 652.069 712.925 652.016C712.821 651.963 712.707 651.931 712.59 651.923C712.474 651.914 712.357 651.929 712.246 651.967C712.136 652.005 712.034 652.065 711.947 652.143C701.956 660.574 702.443 659.946 702.399 660.473C702.356 660.999 701.563 659.759 716.747 677.97C716.895 678.145 717.106 678.254 717.335 678.274C717.563 678.294 717.79 678.223 717.966 678.077C727.89 669.53 727.483 670.228 727.526 669.701C727.569 669.174 728.321 670.477 713.195 652.233Z" fill="#409EFF"/>
<path d="M700.887 541.473C705.603 538.75 707.219 532.72 704.496 528.004C701.774 523.288 695.743 521.672 691.027 524.395C686.311 527.117 684.696 533.148 687.418 537.864C690.141 542.579 696.171 544.195 700.887 541.473Z" fill="#FFD0C7"/>
<path d="M701.338 542.254C699.497 543.325 697.379 543.825 695.253 543.692C693.128 543.558 691.089 542.797 689.396 541.504C687.703 540.211 686.432 538.445 685.744 536.43C685.055 534.414 684.98 532.239 685.528 530.181C686.076 528.123 687.223 526.273 688.823 524.867C690.422 523.461 692.403 522.561 694.515 522.281C696.627 522.002 698.774 522.355 700.684 523.296C702.595 524.237 704.184 525.725 705.249 527.569C706.673 530.036 707.061 532.967 706.328 535.72C705.595 538.472 703.801 540.822 701.338 542.254ZM691.462 525.147C689.922 526.036 688.68 527.362 687.893 528.957C687.107 530.552 686.811 532.344 687.043 534.107C687.275 535.87 688.025 537.525 689.197 538.862C690.37 540.199 691.912 541.158 693.63 541.618C695.348 542.078 697.163 542.019 698.847 541.447C700.531 540.876 702.007 539.818 703.09 538.407C704.173 536.996 704.812 535.296 704.929 533.522C705.045 531.747 704.633 529.978 703.743 528.438C702.545 526.38 700.581 524.879 698.28 524.262C695.98 523.646 693.529 523.964 691.462 525.147Z" fill="#409EFF"/>
<path d="M560.8 721.307C453.898 785.42 304.824 751.422 237.342 634.539C208.717 584.835 199.093 526.435 210.257 470.175C221.421 413.914 252.614 363.613 298.048 328.605C343.483 293.597 400.074 276.258 457.321 279.806C514.569 283.354 568.586 307.547 609.35 347.898C609.465 348.009 609.557 348.142 609.62 348.288C609.684 348.435 609.718 348.592 609.721 348.752C609.723 348.912 609.694 349.071 609.636 349.219C609.577 349.368 609.49 349.503 609.379 349.618C609.267 349.733 609.135 349.825 608.988 349.888C608.842 349.952 608.684 349.986 608.524 349.989C608.365 349.991 608.206 349.962 608.057 349.904C607.909 349.845 607.773 349.758 607.658 349.647C576.615 318.86 537.583 297.365 494.97 287.589C452.357 277.812 407.859 280.143 366.5 294.319C325.142 308.494 288.57 333.949 260.913 367.811C233.257 401.672 215.617 442.591 209.986 485.947C204.355 529.303 210.957 573.37 229.046 613.173C247.135 652.976 275.991 686.929 312.357 711.199C348.722 735.469 391.148 749.09 434.845 750.523C478.542 751.956 521.769 741.145 559.647 719.31C598.146 696.975 629.527 664.186 650.151 624.744C670.775 585.302 679.798 540.822 676.173 496.461C676.144 496.135 676.246 495.811 676.455 495.56C676.665 495.309 676.965 495.151 677.291 495.121C677.614 495.1 677.933 495.207 678.178 495.42C678.423 495.632 678.575 495.932 678.602 496.255C682.238 541.032 673.12 585.923 652.303 625.733C631.486 665.543 599.821 698.645 560.974 721.207L560.8 721.307Z" fill="#409EFF"/>
<path d="M661.539 428.532C661.386 428.622 661.216 428.678 661.039 428.697C660.863 428.715 660.684 428.695 660.516 428.639C660.348 428.582 660.194 428.49 660.065 428.368C659.935 428.247 659.833 428.099 659.766 427.934C656.18 419.106 652.054 410.507 647.409 402.187C647.256 401.903 647.219 401.571 647.307 401.261C647.394 400.951 647.6 400.687 647.879 400.526C648.162 400.373 648.494 400.336 648.804 400.423C649.114 400.511 649.378 400.716 649.539 400.996C654.233 409.402 658.41 418.088 662.046 427.004C662.158 427.277 662.169 427.582 662.076 427.862C661.982 428.142 661.792 428.38 661.539 428.532Z" fill="#409EFF"/>
<path d="M514.004 255.015C505.852 259.721 499.278 266.74 495.115 275.183C490.951 283.625 489.385 293.113 490.613 302.446C491.842 311.779 495.811 320.538 502.018 327.615C508.224 334.692 516.39 339.77 525.483 342.207C534.576 344.643 544.186 344.328 553.1 341.303C562.014 338.277 569.831 332.676 575.561 325.207C581.292 317.739 584.679 308.739 585.295 299.346C585.91 289.953 583.727 280.588 579.02 272.436C572.696 261.517 562.3 253.552 550.113 250.287C537.925 247.021 524.94 248.721 514.004 255.015ZM575.423 321.288C550.704 304.489 523.019 292.538 493.841 286.069C495.306 279.603 498.178 273.54 502.252 268.311C506.327 263.081 511.503 258.813 517.414 255.811C523.325 252.809 529.825 251.147 536.451 250.942C543.077 250.737 549.667 251.994 555.752 254.625C561.837 257.256 567.268 261.195 571.658 266.163C576.048 271.131 579.289 277.005 581.151 283.367C583.014 289.73 583.451 296.425 582.432 302.975C581.414 309.526 578.964 315.772 575.257 321.268L575.423 321.288Z" fill="#409EFF"/>
<path d="M378.652 497.533C378.549 497.412 378.424 497.312 378.283 497.24C378.142 497.167 377.988 497.123 377.83 497.111C377.672 497.098 377.513 497.116 377.362 497.165C377.212 497.214 377.072 497.292 376.951 497.395L373.486 500.284C369.827 495.979 365.333 492.461 360.277 489.941C355.22 487.421 349.705 485.952 344.065 485.623C344.708 480.07 344.229 474.445 342.657 469.081C341.085 463.717 338.451 458.724 334.913 454.397L338.407 451.491C338.652 451.275 338.804 450.973 338.832 450.648C338.86 450.323 338.761 450 338.557 449.745C338.342 449.503 338.041 449.354 337.717 449.331C337.394 449.309 337.075 449.414 336.828 449.625L307.085 474.515C306.822 474.698 306.643 474.977 306.586 475.293C306.529 475.608 306.599 475.933 306.782 476.196C306.965 476.459 307.244 476.638 307.559 476.695C307.875 476.752 308.199 476.682 308.462 476.499L312.155 473.402C315.798 477.637 320.254 481.098 325.259 483.578C330.264 486.058 335.717 487.508 341.293 487.841C340.637 493.451 341.125 499.136 342.726 504.552C344.328 509.969 347.011 515.005 350.612 519.356L347.23 522.389C346.986 522.606 346.834 522.907 346.806 523.233C346.778 523.558 346.876 523.881 347.08 524.135C347.295 524.378 347.597 524.527 347.92 524.55C348.244 524.572 348.563 524.467 348.81 524.256L378.581 499.349C378.716 499.241 378.825 499.106 378.903 498.952C378.98 498.798 379.024 498.629 379.031 498.457C379.037 498.285 379.007 498.113 378.942 497.954C378.876 497.794 378.778 497.651 378.652 497.533ZM314.139 472.025L333.142 456.075C336.459 460.152 338.93 464.85 340.41 469.893C341.891 474.936 342.351 480.223 341.763 485.446C336.493 485.184 331.329 483.86 326.582 481.553C321.835 479.247 317.603 476.007 314.139 472.025ZM343.828 488.153C349.159 488.446 354.374 489.821 359.156 492.197C363.938 494.572 368.186 497.896 371.64 501.967L352.579 517.95C349.151 513.833 346.602 509.058 345.088 503.918C343.575 498.779 343.128 493.384 343.777 488.066L343.828 488.153Z" fill="#409EFF"/>
<path d="M733.789 390.832C733.525 391.015 733.201 391.085 732.886 391.029C732.57 390.972 732.291 390.792 732.108 390.529C731.926 390.266 731.855 389.941 731.912 389.626C731.969 389.311 732.149 389.031 732.412 388.848L745.583 377.77C745.706 377.667 745.848 377.588 746.002 377.54C746.155 377.492 746.317 377.476 746.477 377.491C746.637 377.507 746.792 377.554 746.934 377.631C747.075 377.707 747.2 377.811 747.3 377.937C747.407 378.055 747.489 378.195 747.541 378.346C747.592 378.497 747.612 378.658 747.599 378.817C747.586 378.976 747.541 379.131 747.466 379.272C747.391 379.413 747.288 379.538 747.163 379.637C734.503 390.265 734.078 390.665 733.789 390.832Z" fill="#409EFF"/>
<path d="M770.371 360.14C770.11 360.327 769.785 360.402 769.469 360.349C769.153 360.297 768.87 360.12 768.684 359.86C768.498 359.599 768.422 359.275 768.475 358.958C768.528 358.642 768.704 358.36 768.965 358.173L782.136 347.095C782.259 346.991 782.401 346.913 782.555 346.865C782.708 346.817 782.87 346.8 783.03 346.816C783.19 346.831 783.345 346.879 783.487 346.955C783.628 347.032 783.753 347.136 783.853 347.262C783.956 347.382 784.034 347.522 784.083 347.673C784.132 347.823 784.151 347.982 784.138 348.14C784.125 348.298 784.081 348.452 784.009 348.593C783.936 348.734 783.837 348.86 783.716 348.962C770.916 359.748 770.66 359.973 770.371 360.14Z" fill="#409EFF"/>
<path d="M748.858 358.242C748.612 358.389 748.32 358.443 748.037 358.394C747.754 358.345 747.498 358.197 747.315 357.975L736.254 344.833C736.05 344.578 735.951 344.255 735.979 343.93C736.007 343.605 736.159 343.303 736.403 343.087C736.655 342.886 736.975 342.79 737.296 342.821C737.617 342.852 737.912 343.007 738.121 343.253L749.17 356.441C749.28 356.575 749.361 356.731 749.405 356.899C749.45 357.067 749.458 357.242 749.428 357.413C749.399 357.584 749.332 357.747 749.234 357.89C749.136 358.033 749.007 358.153 748.858 358.242Z" fill="#409EFF"/>
<path d="M779.579 394.808C779.332 394.955 779.041 395.009 778.758 394.96C778.475 394.911 778.219 394.762 778.036 394.541L766.958 381.369C766.854 381.247 766.775 381.104 766.727 380.951C766.679 380.797 766.663 380.636 766.678 380.476C766.694 380.316 766.741 380.16 766.818 380.019C766.894 379.878 766.998 379.753 767.124 379.652C767.245 379.549 767.384 379.471 767.535 379.422C767.686 379.374 767.845 379.355 768.003 379.368C768.161 379.381 768.315 379.424 768.456 379.497C768.597 379.569 768.722 379.669 768.824 379.79L779.873 392.978C779.99 393.111 780.076 393.268 780.125 393.438C780.174 393.609 780.184 393.787 780.156 393.962C780.128 394.137 780.062 394.303 779.962 394.449C779.862 394.595 779.731 394.718 779.579 394.808Z" fill="#409EFF"/>
<path d="M743.461 368.614C742.969 368.898 744.258 368.925 725.625 367.333C725.308 367.306 725.014 367.154 724.809 366.911C724.603 366.668 724.503 366.354 724.529 366.037C724.54 365.875 724.583 365.718 724.657 365.574C724.73 365.43 724.832 365.303 724.955 365.199C725.079 365.095 725.222 365.017 725.377 364.97C725.531 364.923 725.694 364.907 725.854 364.924L743.083 366.555C743.284 366.625 743.463 366.747 743.601 366.908C743.74 367.07 743.833 367.265 743.872 367.474C743.91 367.684 743.892 367.899 743.82 368.099C743.748 368.3 743.624 368.477 743.461 368.614Z" fill="#409EFF"/>
<path d="M791.014 372.768C790.522 373.052 791.811 373.079 773.178 371.487C772.861 371.46 772.567 371.308 772.362 371.065C772.156 370.822 772.056 370.507 772.082 370.19C772.093 370.029 772.136 369.872 772.21 369.728C772.283 369.584 772.385 369.456 772.508 369.353C772.632 369.249 772.775 369.171 772.93 369.124C773.084 369.076 773.247 369.061 773.407 369.077L790.586 370.622C790.81 370.675 791.014 370.791 791.174 370.957C791.334 371.123 791.443 371.331 791.489 371.557C791.534 371.783 791.513 372.017 791.429 372.232C791.345 372.447 791.201 372.632 791.014 372.768Z" fill="#409EFF"/>
<path d="M759.999 354.743C759.808 354.859 759.588 354.919 759.365 354.917C759.141 354.915 758.923 354.851 758.733 354.732C758.544 354.613 758.392 354.443 758.294 354.242C758.196 354.041 758.156 353.817 758.178 353.595L759.665 336.45C759.704 336.131 759.863 335.839 760.109 335.632C760.355 335.426 760.67 335.32 760.99 335.337C761.152 335.348 761.309 335.392 761.453 335.465C761.597 335.538 761.724 335.64 761.828 335.764C761.932 335.887 762.01 336.031 762.057 336.185C762.104 336.34 762.12 336.502 762.103 336.663L760.617 353.808C760.597 354.002 760.531 354.189 760.423 354.352C760.316 354.515 760.17 354.649 759.999 354.743Z" fill="#409EFF"/>
<path d="M755.828 402.268C755.637 402.383 755.417 402.444 755.194 402.442C754.97 402.44 754.752 402.376 754.563 402.256C754.374 402.137 754.222 401.968 754.123 401.767C754.025 401.566 753.985 401.342 754.007 401.119L755.494 383.974C755.525 383.652 755.682 383.355 755.93 383.147C756.178 382.939 756.497 382.836 756.82 382.861C757.139 382.901 757.431 383.059 757.637 383.305C757.843 383.551 757.949 383.866 757.933 384.187L756.376 401.411C756.35 401.585 756.289 401.751 756.194 401.898C756.1 402.046 755.975 402.172 755.828 402.268Z" fill="#409EFF"/>
<path d="M505.691 803.335L476.925 800.839L479.566 771.99C479.583 771.829 479.567 771.667 479.52 771.512C479.473 771.358 479.395 771.214 479.291 771.091C479.187 770.967 479.06 770.865 478.916 770.792C478.772 770.719 478.615 770.675 478.453 770.664C478.133 770.647 477.818 770.753 477.572 770.96C477.326 771.166 477.167 771.458 477.128 771.777L474.487 800.626L445.637 797.985C445.32 797.959 445.006 798.06 444.763 798.266C444.52 798.471 444.368 798.764 444.34 799.081C444.324 799.242 444.339 799.404 444.387 799.559C444.434 799.713 444.512 799.857 444.615 799.98C444.719 800.104 444.847 800.206 444.991 800.279C445.135 800.352 445.292 800.396 445.453 800.407L474.303 803.048L471.645 831.868C471.662 832.165 471.785 832.446 471.992 832.66C472.199 832.873 472.476 833.005 472.772 833.031C473.068 833.057 473.364 832.975 473.605 832.801C473.846 832.626 474.016 832.371 474.084 832.081L476.725 803.232L505.574 805.873C505.91 805.889 506.239 805.77 506.488 805.543C506.737 805.316 506.886 804.999 506.901 804.663C506.917 804.326 506.798 803.997 506.571 803.748C506.344 803.499 506.028 803.351 505.691 803.335Z" fill="#409EFF"/>
<path d="M820.366 681.903L820.219 674.964C820.222 674.804 820.191 674.646 820.13 674.499C820.069 674.351 819.978 674.218 819.863 674.107C819.748 673.996 819.612 673.91 819.463 673.854C819.314 673.797 819.155 673.772 818.995 673.779C818.678 673.78 818.374 673.906 818.149 674.13C817.924 674.354 817.796 674.657 817.794 674.975C817.941 681.914 817.795 684.468 817.899 685.45C817.885 685.589 817.899 685.73 817.94 685.863C817.981 685.996 818.049 686.12 818.139 686.226C818.23 686.333 818.341 686.42 818.465 686.482C818.59 686.545 818.726 686.582 818.866 686.59C819.695 686.69 821.967 686.614 829.541 686.563C829.866 686.557 830.175 686.424 830.402 686.192C830.629 685.959 830.755 685.647 830.754 685.323C830.74 685.001 830.604 684.696 830.373 684.471C830.143 684.246 829.836 684.116 829.513 684.109L821.492 684.186C823.557 681.817 826.32 680.165 829.385 679.467C832.449 678.77 835.656 679.063 838.543 680.305C841.43 681.547 843.848 683.673 845.449 686.377C847.05 689.082 847.751 692.224 847.451 695.353C847.151 698.481 845.866 701.434 843.781 703.785C841.695 706.136 838.918 707.764 835.847 708.435C832.777 709.106 829.573 708.785 826.697 707.518C823.821 706.251 821.421 704.104 819.844 701.386C819.674 701.109 819.404 700.907 819.089 700.823C818.775 700.738 818.44 700.778 818.154 700.934C817.88 701.102 817.682 701.371 817.603 701.684C817.523 701.996 817.569 702.327 817.731 702.606C819.553 705.73 822.309 708.203 825.611 709.678C828.914 711.152 832.595 711.553 836.137 710.825C839.68 710.097 842.904 708.275 845.356 705.617C847.809 702.96 849.366 699.599 849.807 696.01C850.249 692.421 849.554 688.783 847.819 685.61C846.084 682.437 843.397 679.888 840.137 678.322C836.878 676.757 833.209 676.253 829.647 676.883C826.086 677.513 822.813 679.244 820.287 681.833L820.366 681.903Z" fill="#409EFF"/>
<path d="M850.564 423.101C824.132 425.316 797.46 445.231 768.289 450.456C767.973 444.695 764.802 436.26 760.251 436.533C734.037 432.641 651.104 424.831 629.091 424.07C633.68 419.183 686.126 363.161 699.569 349.611C703.94 346.353 698.98 337.562 695.735 333.144C702.497 328.128 709.656 323.672 717.142 319.82C717.403 319.715 717.614 319.515 717.732 319.261C717.851 319.006 717.867 318.716 717.779 318.449C708.192 280.72 689.172 241.76 681.444 226.771C681.345 226.563 681.189 226.388 680.994 226.267C680.799 226.145 680.573 226.082 680.343 226.085C680.113 226.088 679.889 226.156 679.697 226.283C679.505 226.409 679.353 226.587 679.259 226.797C665.008 256.059 676.337 281.898 668.99 302.195C663.467 297.241 658.65 295.583 656.393 297.89C560.399 394.801 557.695 399.141 551.726 409.727C545.445 420.84 542.901 442.571 533.916 503.682C532.893 504.851 531.388 506.723 529.38 509.195C527.335 503.313 522.081 489.867 518.555 482.022C518.117 481.235 517.493 480.566 516.738 480.074C515.983 479.582 515.12 479.281 514.223 479.198C510.933 478.981 507.64 479.559 504.62 480.882C494.985 466.801 471.289 432.509 466.977 425.041C461.295 415.2 461.545 397.65 461.562 396.945C461.682 392.206 459.452 388.476 453.953 379.687C452.783 377.661 451.133 376.876 449.776 377.467C447.571 378.393 447.153 382.416 448.633 388.856C449.851 394.174 448.284 399.748 446.057 400.571C443.83 401.393 441.621 398.771 438.98 393.928C434.169 385.127 428.447 371.874 426.814 368.378C425.182 364.882 422.705 362.53 420.726 363.248C418.748 363.966 418.083 367.36 419.36 372.18C420.112 375.219 421.605 380.88 423.233 386.308C419.86 380.999 417.057 376.211 414.225 371.44C412.086 367.735 409.595 366.162 407.804 367.003C406.013 367.845 405.581 371.375 407.314 376.047C408.807 379.971 410.794 384.883 412.809 389.509C409.644 385.431 407.696 382.658 405.835 380.104C402.219 375.245 399.888 375.819 398.961 376.354C396.964 377.507 397.17 380.939 399.375 385.493C401.395 389.46 403.536 393.435 405.713 397.272C403.946 395.282 402.754 393.886 400.854 391.664C398.132 388.488 395.594 387.368 394.045 388.494C392.495 389.62 392.821 393.06 395.261 397.286C399.606 405.008 404.575 412.362 410.118 419.275C415.055 424.684 430.024 437.576 433.759 441.171C431.804 450.018 439.389 461.617 448.055 462.055C448.055 462.055 465.018 491.435 468.644 497.716C463.971 502.19 464.863 505.071 465.963 506.443C468 510.438 473.375 520.149 476.819 526.381C459.52 542.543 426.339 575.517 405.987 582.713C406.345 576.362 405.371 570.007 403.126 564.056C400.881 558.104 397.416 552.688 392.953 548.156C388.49 543.624 383.128 540.076 377.212 537.74C371.296 535.404 364.956 534.332 358.601 534.593C352.245 534.854 346.015 536.441 340.31 539.254C334.605 542.067 329.551 546.042 325.475 550.925C321.398 555.807 318.388 561.489 316.639 567.604C314.889 573.72 314.438 580.134 315.316 586.433C310.609 585.073 305.603 585.152 300.941 586.659C296.279 588.166 292.174 591.032 289.153 594.89C286.133 598.748 284.335 603.421 283.991 608.308C283.647 613.196 284.772 618.074 287.222 622.317C289.671 626.561 293.334 629.974 297.739 632.12C302.143 634.265 307.089 635.045 311.94 634.358C316.791 633.671 321.326 631.549 324.962 628.266C328.598 624.982 331.17 620.685 332.345 615.929C341.202 622.809 352.281 626.188 363.47 625.423C374.659 624.657 385.174 619.801 393.012 611.778C404.596 625.159 408.011 636.889 413.907 653.051C426.785 688.726 443.01 733.005 460.58 740.575C479.617 748.881 491.813 738.521 529.471 716.779C535.271 713.855 532.28 704.197 529.015 698.208C538.258 690.286 549.582 680.352 557.473 673.365C567.681 664.306 568.495 658.163 569.371 651.057C569.831 647.241 569.769 648.203 570.308 644.457C571.247 638.396 571.997 634.683 575.164 634.552C584.876 634.194 601.208 632.869 601.383 628.292C601.424 627.226 600.556 625.99 598.038 625.707C592.911 625.116 588.891 624.504 585.36 623.803C590.476 621.968 607.544 615.433 606.136 610.187C605.833 609.127 604.618 608.092 602.178 608.613L587.704 611.952C592.187 609.557 605.916 601.785 603.856 597.146C603.6 596.647 603.182 596.249 602.67 596.018C602.158 595.788 601.583 595.738 601.039 595.878C614.767 581.352 618.947 555.435 619.172 527.749C624.607 516.507 629.704 505.883 635.227 494.86C654.352 495.899 743.104 500.619 758.7 500.761C764.335 500.827 766.697 492.285 767.261 486.711C773.112 488.372 779.046 489.725 785.039 490.765C789.154 491.207 832.011 451.797 851.436 424.411C851.472 424.124 851.404 423.834 851.244 423.594C851.084 423.353 850.842 423.178 850.564 423.101ZM672.618 298.518C677.327 278.934 669.049 255.771 680.443 230.05C688.661 246.223 706.061 282.645 715.194 318.05C703.918 323.939 693.401 331.177 683.874 339.606C676.316 332.231 669.571 324.067 663.754 315.253C668.119 310.544 671.175 304.775 672.618 298.518ZM508.795 491.054C498.765 497.632 487.773 502.611 476.213 505.812C473.121 500.457 450.878 461.931 450.878 461.931C453.418 461.342 455.684 459.913 457.31 457.875C458.935 455.837 459.824 453.309 459.832 450.702C465.053 447.904 469.712 444.168 473.576 439.679C484.004 455.001 503.482 483.122 508.795 491.054ZM412.059 417.691C406.632 410.902 401.766 403.682 397.511 396.102C396.306 394.487 395.615 392.545 395.53 390.531C395.732 390.414 397.015 390.831 399.141 393.309C412.197 408.503 410.04 404.5 413.079 409.229C413.265 409.455 413.525 409.608 413.813 409.66C414.101 409.712 414.399 409.661 414.652 409.514C414.906 409.368 415.099 409.136 415.198 408.861C415.297 408.585 415.295 408.283 415.192 408.009C410.272 400.423 405.748 392.588 401.639 384.534C399.793 380.736 400.009 378.837 400.294 378.595C400.579 378.353 401.804 378.804 403.923 381.672C407.931 387.076 411.223 391.775 416.749 398.272C417.635 399.806 418.188 401.3 418.728 402.301C418.914 402.527 419.174 402.68 419.462 402.732C419.75 402.785 420.048 402.733 420.301 402.587C420.555 402.44 420.748 402.209 420.847 401.933C420.946 401.657 420.944 401.355 420.841 401.081C417.901 395.522 412.363 382.588 409.731 375.154C408.266 371.213 408.693 369.346 408.983 369.179C409.272 369.012 410.514 369.491 412.348 372.601C426.788 396.876 425.686 393.498 426.81 396.246C426.927 396.546 427.159 396.788 427.455 396.918C427.75 397.047 428.085 397.054 428.386 396.937C428.687 396.82 428.929 396.588 429.058 396.292C429.188 395.996 429.195 395.661 429.078 395.361C426.236 387.542 423.848 379.565 421.924 371.472C420.776 367.078 421.57 365.578 421.772 365.461C421.975 365.344 423.271 365.985 424.82 369.336C426.369 372.687 432.041 385.854 437.052 395.002C441.379 402.963 444.951 403.602 447.161 402.751C451.171 401.207 452.527 393.863 451.201 388.223C449.759 381.915 450.608 379.843 450.835 379.634C451.378 379.918 451.815 380.37 452.08 380.922C457.312 389.249 459.425 392.775 459.323 396.81C459.163 405.624 460.639 418.743 465.322 426.653C461.923 430.663 457.896 434.095 453.399 436.817C445.961 430.151 437.744 432.965 434.855 438.724C430.338 434.578 416.45 422.488 412.059 417.691ZM439.965 436.545C450.761 430.043 464.915 451.55 452.7 458.602C441.799 464.857 429.447 442.927 439.965 436.545ZM374.166 594.177C372.609 593.686 371.485 593.679 370.853 594.121C363.942 598.729 358.537 593.513 366.336 590.708C368.273 590.053 368.687 588.965 368.729 588.169C368.771 585.636 364.026 583.165 359.466 581.283C362.866 575.435 365.398 569.124 366.981 562.548C385.406 565.65 397.296 571.136 398.138 576.94C398.711 580.739 394.588 584.895 386.206 588.962C385.948 589.075 385.738 589.276 385.612 589.53C385.487 589.783 385.455 590.072 385.521 590.346C385.588 590.621 385.749 590.863 385.976 591.031C386.203 591.199 386.482 591.281 386.764 591.264C396.505 590.889 410.793 583.952 416.814 580.476C419.419 578.972 422.169 577.384 424.846 575.337C430.465 593.358 425.076 614.84 409.967 634.795C406.097 625.611 400.763 617.117 394.171 609.642C394.171 609.642 394.171 609.642 394.054 609.44C388.693 602.842 381.865 597.586 374.116 594.09L374.166 594.177ZM461.762 738.812C441.529 730.039 420.315 662.011 410.999 637.518C427.549 616.384 433.288 593.234 426.933 573.939C441.925 563.006 461.258 544.55 478.285 528.853C479.12 530.301 479.755 531.401 479.956 531.748C480.032 531.889 480.137 532.014 480.262 532.115C480.388 532.215 480.532 532.29 480.687 532.333C480.842 532.377 481.004 532.389 481.163 532.369C481.323 532.35 481.477 532.298 481.616 532.217C481.895 532.056 482.101 531.793 482.188 531.483C482.276 531.172 482.239 530.84 482.086 530.557C480.816 528.357 473.782 515.707 469.94 508.585C474.794 509.372 483.163 507.087 494.292 501.897C500.787 498.842 514.119 492.187 517.931 486.088C521.692 494.877 526.417 507.471 527.769 511.283C518.407 523.211 502.893 543.668 496.577 552.448C452.956 556.175 447.149 562.962 433.339 574.872C433.218 574.974 433.118 575.1 433.046 575.241C432.973 575.382 432.929 575.536 432.916 575.694C432.904 575.852 432.922 576.011 432.971 576.161C433.02 576.312 433.098 576.452 433.201 576.572C433.305 576.696 433.433 576.798 433.577 576.872C433.721 576.946 433.879 576.989 434.04 577.001C434.201 577.012 434.364 576.99 434.517 576.938C434.67 576.885 434.81 576.802 434.93 576.693C448.253 565.142 453.845 558.517 496.828 554.889C506.548 563.634 517.666 588.708 512.826 607.866C507.436 613.371 501.459 619.061 495.455 624.572C487.424 627.044 479.181 628.767 470.832 629.719C470.766 628.869 470.729 628.003 470.68 627.182C470.674 627.023 470.637 626.867 470.571 626.722C470.505 626.578 470.411 626.447 470.295 626.339C470.179 626.23 470.042 626.146 469.893 626.09C469.744 626.035 469.586 626.009 469.427 626.015C469.268 626.02 469.112 626.057 468.967 626.123C468.822 626.189 468.692 626.283 468.583 626.399C468.475 626.516 468.391 626.652 468.335 626.801C468.279 626.95 468.254 627.109 468.259 627.268C469.326 644.384 472.019 661.361 476.304 677.967C472.128 681.497 468.25 684.74 465.565 686.907C465.428 687.11 465.357 687.348 465.359 687.592C465.361 687.836 465.438 688.073 465.578 688.272C465.718 688.472 465.916 688.624 466.144 688.709C466.373 688.793 466.622 688.806 466.858 688.747C467.466 688.396 487.006 671.904 492.545 667.394C492.122 672.076 494.204 680.561 504.027 695.77C508.385 702.516 516.97 714.579 524.564 717.103C490.53 737.1 479.037 746.206 461.712 738.725L461.762 738.812ZM541.71 635.033C540.338 637.787 538.71 640.406 536.849 642.857C534.507 644.749 518.904 656.228 505.794 665.341C502.785 661.867 498.341 659.918 494.734 662.695C491.127 665.472 484.556 671.003 478.314 676.035C475.899 666.62 474.046 657.071 472.764 647.437C486.216 636.043 501.694 622.476 514.078 609.768C523.04 614.486 532.667 617.816 542.628 619.644C542.728 624.763 542.405 629.881 541.66 634.946L541.71 635.033ZM544.048 604.12C544.048 604.12 546.965 604.829 551.086 617.849C549.025 621.431 546.841 625.471 544.76 629.22C545.986 613.962 543.351 605.989 543.997 604.034L544.048 604.12ZM578.056 614.628C575.997 615.006 574.042 615.363 572.232 615.636C572.073 615.66 571.921 615.715 571.784 615.798C571.647 615.881 571.528 615.991 571.434 616.12C571.34 616.25 571.273 616.397 571.236 616.554C571.2 616.71 571.195 616.871 571.222 617.029C571.244 617.187 571.296 617.338 571.377 617.475C571.457 617.611 571.564 617.731 571.691 617.826C571.818 617.922 571.962 617.991 572.116 618.03C572.27 618.07 572.43 618.078 572.587 618.056C581.075 616.782 592.757 613.82 602.863 611.536C603.513 611.393 603.89 611.445 603.915 611.353C603.812 612.378 599.58 617.214 580.666 623.426L575.724 622.42C575.408 622.361 575.083 622.43 574.818 622.612C574.554 622.793 574.373 623.072 574.314 623.388C574.256 623.703 574.325 624.028 574.506 624.293C574.688 624.557 574.967 624.738 575.282 624.797C583.912 626.375 588.892 627.514 597.968 628.527C598.289 628.57 598.605 628.646 598.91 628.755C597.893 629.534 593.352 631.963 575.267 632.525C569.128 632.788 568.851 640.397 567.737 647.023C566.137 656.552 567.372 661.899 556.041 671.953C544.049 682.736 522.892 700.972 515.378 707.008C507.145 697.474 500.634 686.581 496.135 674.815C507.884 667.222 533.761 648.538 538.329 644.82C541.613 642.152 554.736 613.542 559.911 609.203C561.295 608.057 582.564 596.433 590.794 591.836C591.342 591.499 591.959 591.288 592.599 591.218C592.599 591.218 592.935 595.077 575.003 606.665C572.494 607.534 570.176 608.332 568.176 608.946C567.869 609.042 567.611 609.254 567.457 609.538C567.303 609.821 567.266 610.153 567.354 610.463C567.457 610.766 567.67 611.019 567.951 611.172C568.233 611.324 568.561 611.365 568.871 611.286C577.751 608.551 592.128 602.837 600.801 599.142C601.38 598.807 601.757 598.86 601.828 598.78C601.753 599.788 597.852 605.398 578.006 614.541L578.056 614.628ZM594.727 598.982C591.408 600.319 587.841 601.761 584.269 603.129C590.678 598.387 596.52 592.93 594.678 589.94C593.843 588.493 591.711 588.411 589.569 589.648C578.95 595.587 559.851 605.957 558.286 607.324C556.101 609.648 554.229 612.248 552.715 615.056C549.581 605.75 546.335 601.063 543.486 601.743C541.833 602.157 541.026 604.167 541.568 606.71C542.102 610.252 542.436 613.822 542.569 617.402C533.054 615.566 523.86 612.344 515.28 607.839C519.955 587.927 508.983 563.039 498.795 553.483C506.835 542.473 525.337 518.168 533.253 508.349C531.377 521.01 529.248 535.438 526.759 551.849C526.736 552.007 526.745 552.168 526.784 552.322C526.823 552.477 526.892 552.622 526.987 552.75C527.083 552.878 527.202 552.985 527.339 553.067C527.476 553.149 527.628 553.202 527.785 553.225C527.943 553.248 528.104 553.24 528.258 553.201C528.413 553.162 528.558 553.093 528.686 552.997C528.814 552.902 528.921 552.783 529.003 552.646C529.084 552.509 529.138 552.357 529.161 552.199C545.279 445.019 547.244 422.619 553.829 410.828C559.588 400.749 563.296 396.409 655.273 302.435C655.97 308.053 661.346 317.299 670.531 328.862C675.704 335.215 687.375 348.545 695.384 350.251C681.893 363.984 616.02 434.319 610.528 440.114C610.409 440.243 610.318 440.395 610.261 440.561C610.204 440.727 610.182 440.903 610.196 441.077C614.082 484.105 629.316 573.261 594.677 598.895L594.727 598.982ZM754.927 498.772C731.596 498.001 650.789 493.672 634.608 492.786C634.371 492.771 634.134 492.826 633.928 492.945C633.722 493.064 633.556 493.241 633.451 493.455L629.51 501.403C626.255 489.08 617.553 465.853 614.276 456.166C613.718 450.854 613.206 445.823 612.801 441.31L626.917 426.522C643.746 426.725 727.321 434.511 756.914 438.575C751.126 444.927 749.701 460.107 749.512 468.669C749.11 484.685 751.604 494.554 754.961 498.829L754.927 498.772ZM785.014 488.85C774.001 487.489 770.114 483.095 752.582 484.148C751.383 474.136 751.602 464.006 753.231 454.055C787.856 454.867 818.621 429.54 848.042 425.753C833.879 445.007 803.284 476.642 785.047 488.907L785.014 488.85Z" fill="#409EFF"/>
<path d="M717.492 157.984C724.391 157.984 729.984 152.391 729.984 145.492C729.984 138.593 724.391 133 717.492 133C710.593 133 705 138.593 705 145.492C705 152.391 710.593 157.984 717.492 157.984Z" fill="black" stroke="black" stroke-width="2.3125" stroke-miterlimit="10"/>
<path d="M855.492 795.984C862.391 795.984 867.984 790.391 867.984 783.492C867.984 776.593 862.391 771 855.492 771C848.593 771 843 776.593 843 783.492C843 790.391 848.593 795.984 855.492 795.984Z" fill="#444444" stroke="#409EFF" stroke-width="2.3125" stroke-miterlimit="10"/>
<path d="M953.399 244H807.869C804.628 244 802 246.628 802 249.869V250.137C802 253.379 804.628 256.006 807.869 256.006H953.399C956.641 256.006 959.268 253.379 959.268 250.137V249.869C959.268 246.628 956.641 244 953.399 244Z" fill="#444444" stroke="#409EFF" stroke-width="2.3125" stroke-miterlimit="10"/>
<path d="M394.517 840H287.869C284.628 840 282 842.628 282 845.869V846.137C282 849.379 284.628 852.007 287.869 852.007H394.517C397.758 852.007 400.386 849.379 400.386 846.137V845.869C400.386 842.628 397.758 840 394.517 840Z" fill="#444444" stroke="#409EFF" stroke-width="2.3125" stroke-miterlimit="10"/>
<path d="M952.282 624H884.718C882.665 624 881 626.626 881 629.866V630.134C881 633.374 882.665 636 884.718 636H952.282C954.335 636 956 633.374 956 630.134V629.866C956 626.626 954.335 624 952.282 624Z" fill="#444444" stroke="#409EFF" stroke-width="2.3125" stroke-miterlimit="10"/>
<path d="M686.91 801.877C689.855 801.877 692.243 799.49 692.243 796.545C692.243 793.599 689.855 791.212 686.91 791.212C683.965 791.212 681.578 793.599 681.578 796.545C681.578 799.49 683.965 801.877 686.91 801.877Z" fill="#444444" stroke="#409EFF" stroke-width="2.3125" stroke-miterlimit="10"/>
<path d="M241.333 740.665C244.278 740.665 246.665 738.278 246.665 735.333C246.665 732.387 244.278 730 241.333 730C238.387 730 236 732.387 236 735.333C236 738.278 238.387 740.665 241.333 740.665Z" fill="#444444" stroke="#409EFF" stroke-width="2.3125" stroke-miterlimit="10"/>
<path d="M223.96 305.92C230.566 305.92 235.92 300.566 235.92 293.96C235.92 287.355 230.566 282 223.96 282C217.355 282 212 287.355 212 293.96C212 300.566 217.355 305.92 223.96 305.92Z" fill="#444444" stroke="#409EFF" stroke-width="2.3125" stroke-miterlimit="10"/>
<path d="M1023.25 458.665C1026.19 458.665 1028.58 456.278 1028.58 453.333C1028.58 450.388 1026.19 448 1023.25 448C1020.3 448 1017.92 450.388 1017.92 453.333C1017.92 456.278 1020.3 458.665 1023.25 458.665Z" fill="#444444" stroke="#409EFF" stroke-width="2.3125" stroke-miterlimit="10"/>
</g>
<defs>
<clipPath id="clip0_4_9270">
<rect width="1920" height="1080" fill="white"/>
</clipPath>
</defs>
</svg>
