<svg width="1920" height="1080" viewBox="0 0 1920 1080" fill="none" xmlns="http://www.w3.org/2000/svg">
<g clip-path="url(#clip0_4_9270)">
<rect width="1920" height="1080" fill="white"/>
<path d="M2127.43 1503.03L2221 1127.35L1928.17 882L1526.31 1019.29L1481 1319.93L1648.58 1503.03H2127.43Z" fill="#409EFF"/>
<path d="M1573.1 527.791C1577.82 525.069 1579.43 519.038 1576.71 514.322C1573.99 509.606 1567.96 507.991 1563.24 510.713C1558.53 513.436 1556.91 519.466 1559.63 524.182C1562.36 528.898 1568.39 530.514 1573.1 527.791Z" fill="#FFD0C7"/>
<path d="M1550.01 547.147C1554.72 544.424 1556.34 538.394 1553.61 533.678C1550.89 528.962 1544.86 527.346 1540.15 530.069C1535.43 532.792 1533.81 538.822 1536.54 543.538C1539.26 548.254 1545.29 549.87 1550.01 547.147Z" fill="#FFD0C7"/>
<path d="M1233.36 438.617C1236.52 441.703 1238.47 445.82 1238.86 450.221C1239.01 452.177 1238.59 454.134 1237.66 455.858C1236.72 457.582 1235.31 459 1233.59 459.941C1223.49 465.774 1212.62 450.703 1215.45 441.159C1217.31 434.684 1225.86 431.25 1233.36 438.617Z" fill="#FFD0C7"/>
<path d="M1540.56 438.132C1538.08 438.325 1534.47 443.034 1532.45 453.233C1530.52 464.026 1530.29 475.055 1531.79 485.917C1533.29 496.009 1536.58 500.29 1539.14 500.585C1523.1 500.275 1430.8 495.363 1414.82 494.481L1409.47 505.283C1407.17 494.61 1396.88 467.091 1393.35 456.701C1392.75 451.107 1392.19 445.794 1391.82 441.145L1406.58 425.404C1422.97 425.588 1513.91 434.221 1540.56 438.132Z" fill="#FFD0C7"/>
<path d="M1315.27 504.484C1325.32 436.93 1327.37 420.5 1332.99 410.579C1338.9 400.027 1343.68 394.799 1437.31 299.213C1435.69 301.152 1436.8 306.611 1442.48 315.524C1448.64 325.045 1455.89 333.812 1464.09 341.645C1471.76 348.791 1476.89 350.46 1479.02 348.999C1460.92 367.172 1431.94 398.605 1391.81 441.265C1395.57 485.408 1410.79 574.416 1375.54 600.251C1369.09 602.929 1361.94 605.709 1355.83 607.768C1379.73 592.347 1374.7 588.382 1370.35 590.859C1361.05 596.224 1340.73 607.147 1339.29 608.401C1336.63 611.348 1334.38 614.635 1332.59 618.178C1326.73 599.212 1322.01 601.397 1322.97 606.671C1323.68 610.744 1324.05 614.869 1324.07 619.003C1313.59 617.202 1303.47 613.713 1294.1 608.673C1299.2 589.02 1288.08 563.018 1277.4 553.866C1283.92 545.044 1314.1 505.812 1315.27 504.484Z" fill="#FFD0C7"/>
<path d="M1645.17 577.418C1605.83 530.469 1623.98 552.141 1584.11 504.609C1580.64 500.486 1575.67 497.909 1570.3 497.442C1564.93 496.976 1559.59 498.658 1555.46 502.121L1306.46 710.955C1306.34 711.057 1306.24 711.183 1306.16 711.324C1306.09 711.465 1306.05 711.619 1306.03 711.777C1306.02 711.935 1306.04 712.094 1306.09 712.244C1306.14 712.395 1306.22 712.535 1306.32 712.655L1303.31 715.202L1307.26 717.286L1294 724.94C1293.9 724.747 1293.74 724.584 1293.56 724.471C1293.37 724.357 1293.16 724.297 1292.94 724.296C1292.72 724.296 1292.5 724.355 1292.32 724.467C1292.13 724.579 1291.97 724.74 1291.87 724.933C1289.9 728.529 1289.05 732.635 1289.44 736.719C1289.83 740.802 1291.44 744.675 1294.05 747.833C1316.27 774.337 1341.56 804.504 1355.12 820.641C1358.59 824.766 1363.56 827.347 1368.93 827.818C1374.3 828.29 1379.64 826.615 1383.78 823.159L1642.63 605.977C1646.73 602.509 1649.3 597.566 1649.77 592.219C1650.25 586.873 1648.59 581.554 1645.17 577.418V577.418ZM1563.87 511.469C1565.41 510.58 1567.18 510.168 1568.95 510.284C1570.73 510.4 1572.43 511.04 1573.84 512.123C1575.25 513.205 1576.31 514.682 1576.88 516.366C1577.45 518.05 1577.51 519.865 1577.05 521.583C1576.59 523.301 1575.63 524.843 1574.29 526.016C1572.96 527.188 1571.3 527.938 1569.54 528.17C1567.78 528.402 1565.98 528.106 1564.39 527.32C1562.79 526.533 1561.47 525.291 1560.58 523.751C1559.39 521.686 1559.06 519.232 1559.68 516.929C1560.3 514.626 1561.81 512.662 1563.87 511.469V511.469ZM1540.73 530.887C1542.27 529.998 1544.04 529.586 1545.82 529.702C1547.59 529.818 1549.29 530.458 1550.7 531.541C1552.11 532.623 1553.17 534.1 1553.74 535.784C1554.31 537.468 1554.37 539.283 1553.91 541.001C1553.45 542.718 1552.49 544.261 1551.16 545.433C1549.82 546.606 1548.17 547.356 1546.4 547.588C1544.64 547.82 1542.85 547.524 1541.25 546.737C1539.66 545.951 1538.33 544.709 1537.44 543.169C1536.85 542.148 1536.46 541.019 1536.3 539.847C1536.15 538.676 1536.22 537.485 1536.53 536.343C1536.84 535.201 1537.37 534.132 1538.09 533.195C1538.81 532.259 1539.71 531.475 1540.73 530.887V530.887ZM1640.97 604.235L1382.25 821.379C1380.45 822.889 1378.37 824.031 1376.13 824.738C1373.89 825.445 1371.54 825.703 1369.2 825.499C1366.85 825.295 1364.58 824.631 1362.49 823.547C1360.41 822.462 1358.56 820.977 1357.05 819.178L1310.51 763.691L1596.77 523.466L1643.31 578.998C1646.35 582.634 1647.82 587.329 1647.41 592.052C1647 596.776 1644.73 601.143 1641.1 604.197L1640.97 604.235Z" fill="#409EFF"/>
<path d="M1368.35 796.637C1368.1 796.779 1367.8 796.827 1367.52 796.773C1367.23 796.718 1366.98 796.566 1366.79 796.341L1343.44 768.528C1343.34 768.405 1343.26 768.263 1343.21 768.109C1343.16 767.956 1343.14 767.794 1343.16 767.634C1343.18 767.474 1343.22 767.319 1343.3 767.177C1343.38 767.036 1343.48 766.911 1343.61 766.811C1612.88 540.603 1594.22 556.278 1594.96 556.354C1595.69 556.429 1593.69 554.154 1619.03 584.678C1619.14 584.796 1619.22 584.935 1619.27 585.087C1619.32 585.238 1619.34 585.398 1619.33 585.558C1619.31 585.717 1619.27 585.872 1619.19 586.013C1619.12 586.154 1619.02 586.279 1618.89 586.378C1359.38 804.363 1368.64 796.47 1368.35 796.637ZM1346.08 767.89L1367.89 793.895L1616.52 585.278L1594.71 559.273L1346.08 767.89Z" fill="#409EFF"/>
<path d="M1364.23 760.422C1364.16 760.331 1364.07 760.256 1363.97 760.201C1363.87 760.146 1363.76 760.113 1363.64 760.103C1363.53 760.093 1363.42 760.107 1363.31 760.143C1363.2 760.18 1363.1 760.238 1363.01 760.315C1353.07 768.833 1353.5 768.164 1353.46 768.645C1353.43 769.126 1352.63 767.932 1367.78 786.159C1367.94 786.333 1368.16 786.439 1368.39 786.456C1368.62 786.472 1368.85 786.398 1369.03 786.249C1378.97 777.731 1378.52 778.417 1378.58 777.919C1378.64 777.421 1379.44 778.616 1364.23 760.422Z" fill="#409EFF"/>
<path d="M1391.29 766.449L1377.16 749.598C1377.01 749.415 1376.79 749.3 1376.56 749.278C1376.32 749.256 1376.08 749.328 1375.9 749.479C1365.99 758.055 1366.41 757.311 1366.37 757.838C1366.32 758.364 1365.5 757.141 1380.71 775.335C1380.85 775.485 1381.02 775.585 1381.22 775.62C1381.41 775.654 1381.62 775.621 1381.79 775.525C1382.08 775.358 1383.52 774.104 1391.19 767.668C1391.35 767.516 1391.46 767.306 1391.48 767.08C1391.5 766.854 1391.43 766.629 1391.29 766.449V766.449Z" fill="#409EFF"/>
<path d="M1390.02 738.778C1389.87 738.603 1389.66 738.493 1389.43 738.473C1389.2 738.454 1388.98 738.525 1388.8 738.671C1378.84 747.16 1379.28 746.52 1379.24 747.047C1379.2 747.573 1378.42 746.288 1393.57 764.515C1393.73 764.689 1393.95 764.795 1394.18 764.812C1394.41 764.828 1394.64 764.754 1394.82 764.605C1404.76 756.087 1404.33 756.802 1404.37 756.275C1404.41 755.748 1405.23 756.972 1390.02 738.778Z" fill="#409EFF"/>
<path d="M1402.92 727.97C1402.85 727.88 1402.77 727.805 1402.66 727.75C1402.56 727.695 1402.45 727.662 1402.34 727.652C1402.22 727.642 1402.11 727.655 1402 727.692C1401.89 727.728 1401.79 727.787 1401.71 727.864C1391.75 736.353 1392.19 735.713 1392.13 736.21C1392.07 736.708 1391.29 735.497 1406.48 753.708C1406.62 753.883 1406.84 753.992 1407.06 754.012C1407.29 754.032 1407.52 753.961 1407.7 753.814C1417.66 745.28 1417.21 745.966 1417.27 745.468C1417.33 744.97 1418.14 746.165 1402.92 727.97Z" fill="#409EFF"/>
<path d="M1415.81 717.135C1415.66 716.96 1415.45 716.85 1415.22 716.83C1414.99 716.81 1414.77 716.881 1414.59 717.028C1404.57 725.476 1405.07 724.877 1405.03 725.403C1404.99 725.93 1404.18 724.661 1419.36 742.872C1419.51 743.047 1419.72 743.156 1419.95 743.176C1420.18 743.196 1420.4 743.125 1420.58 742.978C1430.52 734.46 1430.1 735.13 1430.16 734.632C1430.22 734.134 1431.02 735.329 1415.81 717.135Z" fill="#409EFF"/>
<path d="M1442.84 723.179L1428.71 706.327C1428.64 706.237 1428.55 706.162 1428.45 706.107C1428.35 706.052 1428.24 706.018 1428.13 706.008C1428.01 705.998 1427.9 706.012 1427.79 706.049C1427.68 706.085 1427.58 706.144 1427.49 706.221L1418.23 713.965C1418.14 714.04 1418.06 714.132 1418.01 714.236C1417.96 714.34 1417.92 714.453 1417.92 714.57C1417.91 714.686 1417.92 714.803 1417.96 714.914C1418 715.024 1418.06 715.126 1418.14 715.213C1433.45 733.386 1432.34 732.33 1432.87 732.373C1433.39 732.416 1433 732.604 1442.74 724.398C1442.83 724.328 1442.9 724.239 1442.96 724.138C1443.01 724.037 1443.04 723.926 1443.05 723.812C1443.06 723.697 1443.05 723.582 1443.01 723.473C1442.98 723.364 1442.92 723.264 1442.84 723.179V723.179Z" fill="#409EFF"/>
<path d="M1441.62 695.52C1441.55 695.428 1441.46 695.352 1441.36 695.296C1441.25 695.24 1441.14 695.204 1441.03 695.192C1440.91 695.179 1440.8 695.19 1440.68 695.223C1440.57 695.256 1440.47 695.311 1440.38 695.384C1430.47 703.96 1430.86 703.233 1430.82 703.76C1430.78 704.286 1429.97 703.017 1445.15 721.228C1445.3 721.405 1445.51 721.517 1445.74 721.543C1445.97 721.568 1446.2 721.504 1446.39 721.364C1456.31 712.816 1455.9 713.515 1455.95 712.988C1455.99 712.461 1456.81 713.685 1441.62 695.52Z" fill="#409EFF"/>
<path d="M1454.49 684.655C1454.33 684.487 1454.12 684.383 1453.9 684.363C1453.67 684.343 1453.45 684.409 1453.27 684.548C1443.25 692.996 1443.75 692.397 1443.69 692.895C1443.63 693.392 1442.85 692.181 1458.04 710.392C1458.11 710.483 1458.2 710.558 1458.3 710.613C1458.4 710.667 1458.51 710.701 1458.62 710.711C1458.74 710.721 1458.85 710.707 1458.96 710.671C1459.07 710.634 1459.17 710.575 1459.26 710.499C1469.2 701.98 1468.77 702.65 1468.83 702.152C1468.89 701.654 1469.63 702.928 1454.49 684.655Z" fill="#409EFF"/>
<path d="M1467.41 673.876C1467.33 673.787 1467.24 673.713 1467.14 673.66C1467.03 673.606 1466.92 673.574 1466.8 673.566C1466.68 673.558 1466.57 673.573 1466.46 673.611C1466.35 673.649 1466.24 673.708 1466.16 673.786C1456.2 682.276 1456.67 681.619 1456.61 682.116C1456.55 682.614 1455.77 681.403 1470.96 699.614C1471.11 699.789 1471.32 699.898 1471.55 699.918C1471.77 699.938 1472 699.867 1472.18 699.72C1482.1 691.173 1481.69 691.871 1481.74 691.345C1481.78 690.818 1482.53 692.121 1467.41 673.876Z" fill="#409EFF"/>
<path d="M1494.42 679.892L1480.29 663.04C1480.14 662.865 1479.93 662.756 1479.7 662.736C1479.48 662.716 1479.25 662.787 1479.07 662.934C1469.18 671.538 1469.56 670.782 1469.5 671.28C1469.44 671.778 1468.63 670.583 1483.84 688.777C1483.97 688.936 1484.15 689.045 1484.35 689.085C1484.55 689.125 1484.76 689.093 1484.94 688.996C1485.25 688.813 1486.65 687.546 1494.31 681.111C1494.41 681.04 1494.48 680.952 1494.54 680.851C1494.59 680.75 1494.62 680.639 1494.63 680.524C1494.64 680.41 1494.63 680.295 1494.59 680.186C1494.56 680.077 1494.5 679.977 1494.42 679.892Z" fill="#409EFF"/>
<path d="M1493.2 652.233C1493.12 652.143 1493.03 652.069 1492.92 652.016C1492.82 651.963 1492.71 651.931 1492.59 651.923C1492.47 651.914 1492.36 651.929 1492.25 651.967C1492.14 652.005 1492.03 652.065 1491.95 652.143C1481.96 660.574 1482.44 659.946 1482.4 660.473C1482.36 660.999 1481.56 659.759 1496.75 677.97C1496.89 678.145 1497.11 678.254 1497.33 678.274C1497.56 678.294 1497.79 678.223 1497.97 678.077C1507.89 669.53 1507.48 670.228 1507.53 669.701C1507.57 669.174 1508.32 670.477 1493.2 652.233Z" fill="#409EFF"/>
<path d="M1480.89 541.473C1485.6 538.75 1487.22 532.72 1484.5 528.004C1481.77 523.288 1475.74 521.672 1471.03 524.395C1466.31 527.117 1464.7 533.148 1467.42 537.864C1470.14 542.58 1476.17 544.195 1480.89 541.473Z" fill="#FFD0C7"/>
<path d="M1481.34 542.254C1479.5 543.325 1477.38 543.825 1475.25 543.692C1473.13 543.558 1471.09 542.797 1469.4 541.504C1467.7 540.211 1466.43 538.445 1465.74 536.43C1465.06 534.414 1464.98 532.239 1465.53 530.181C1466.08 528.123 1467.22 526.274 1468.82 524.867C1470.42 523.461 1472.4 522.561 1474.52 522.281C1476.63 522.002 1478.77 522.355 1480.68 523.296C1482.6 524.238 1484.18 525.725 1485.25 527.569C1486.67 530.036 1487.06 532.967 1486.33 535.72C1485.6 538.473 1483.8 540.822 1481.34 542.254V542.254ZM1471.46 525.147C1469.92 526.037 1468.68 527.362 1467.89 528.957C1467.11 530.552 1466.81 532.344 1467.04 534.107C1467.28 535.87 1468.02 537.525 1469.2 538.862C1470.37 540.199 1471.91 541.158 1473.63 541.618C1475.35 542.079 1477.16 542.019 1478.85 541.448C1480.53 540.876 1482.01 539.818 1483.09 538.407C1484.17 536.996 1484.81 535.296 1484.93 533.522C1485.05 531.747 1484.63 529.978 1483.74 528.438C1482.54 526.38 1480.58 524.879 1478.28 524.262C1475.98 523.646 1473.53 523.964 1471.46 525.147Z" fill="#409EFF"/>
<path d="M1340.8 721.307C1233.9 785.42 1084.82 751.422 1017.34 634.539C988.717 584.835 979.093 526.435 990.257 470.175C1001.42 413.914 1032.61 363.613 1078.05 328.605C1123.48 293.597 1180.07 276.258 1237.32 279.806C1294.57 283.354 1348.59 307.547 1389.35 347.898C1389.46 348.009 1389.56 348.142 1389.62 348.288C1389.68 348.435 1389.72 348.592 1389.72 348.752C1389.72 348.912 1389.69 349.071 1389.64 349.219C1389.58 349.368 1389.49 349.503 1389.38 349.618C1389.27 349.733 1389.13 349.825 1388.99 349.888C1388.84 349.952 1388.68 349.986 1388.52 349.989C1388.36 349.991 1388.21 349.962 1388.06 349.904C1387.91 349.845 1387.77 349.758 1387.66 349.647C1356.62 318.86 1317.58 297.365 1274.97 287.589C1232.36 277.812 1187.86 280.143 1146.5 294.319C1105.14 308.494 1068.57 333.949 1040.91 367.811C1013.26 401.672 995.617 442.591 989.986 485.947C984.355 529.303 990.957 573.37 1009.05 613.173C1027.14 652.976 1055.99 686.929 1092.36 711.199C1128.72 735.469 1171.15 749.09 1214.84 750.523C1258.54 751.956 1301.77 741.145 1339.65 719.31V719.31C1378.15 696.975 1409.53 664.186 1430.15 624.744C1450.77 585.302 1459.8 540.822 1456.17 496.461C1456.14 496.135 1456.25 495.811 1456.46 495.56C1456.66 495.309 1456.97 495.151 1457.29 495.121C1457.61 495.1 1457.93 495.207 1458.18 495.42C1458.42 495.632 1458.58 495.932 1458.6 496.255C1462.24 541.032 1453.12 585.923 1432.3 625.733C1411.49 665.543 1379.82 698.645 1340.97 721.207L1340.8 721.307Z" fill="#409EFF"/>
<path d="M1441.54 428.532C1441.39 428.622 1441.22 428.678 1441.04 428.696C1440.86 428.715 1440.68 428.695 1440.52 428.638C1440.35 428.582 1440.19 428.49 1440.06 428.368C1439.94 428.247 1439.83 428.099 1439.77 427.934C1436.18 419.106 1432.05 410.507 1427.41 402.186C1427.26 401.903 1427.22 401.571 1427.31 401.261C1427.39 400.951 1427.6 400.687 1427.88 400.526C1428.16 400.373 1428.49 400.336 1428.8 400.423C1429.11 400.511 1429.38 400.716 1429.54 400.995C1434.23 409.402 1438.41 418.088 1442.05 427.004C1442.16 427.277 1442.17 427.581 1442.08 427.862C1441.98 428.142 1441.79 428.38 1441.54 428.532Z" fill="#409EFF"/>
<path d="M1294 255.015C1285.85 259.721 1279.28 266.74 1275.11 275.182C1270.95 283.625 1269.38 293.113 1270.61 302.446C1271.84 311.779 1275.81 320.537 1282.02 327.615C1288.22 334.692 1296.39 339.77 1305.48 342.207C1314.58 344.643 1324.19 344.328 1333.1 341.302C1342.01 338.277 1349.83 332.675 1355.56 325.207C1361.29 317.739 1364.68 308.739 1365.29 299.346C1365.91 289.953 1363.73 280.588 1359.02 272.436C1352.7 261.517 1342.3 253.552 1330.11 250.287C1317.93 247.021 1304.94 248.721 1294 255.015V255.015ZM1355.42 321.288C1330.7 304.489 1303.02 292.538 1273.84 286.069C1275.31 279.603 1278.18 273.54 1282.25 268.31C1286.33 263.081 1291.5 258.813 1297.41 255.811C1303.32 252.809 1309.82 251.147 1316.45 250.942C1323.08 250.737 1329.67 251.994 1335.75 254.625C1341.84 257.256 1347.27 261.195 1351.66 266.163C1356.05 271.131 1359.29 277.005 1361.15 283.367C1363.01 289.73 1363.45 296.424 1362.43 302.975C1361.41 309.526 1358.96 315.772 1355.26 321.268L1355.42 321.288Z" fill="#409EFF"/>
<path d="M1158.65 497.533C1158.55 497.412 1158.42 497.312 1158.28 497.24C1158.14 497.167 1157.99 497.123 1157.83 497.111C1157.67 497.098 1157.51 497.116 1157.36 497.165C1157.21 497.214 1157.07 497.292 1156.95 497.395L1153.49 500.284C1149.83 495.979 1145.33 492.461 1140.28 489.941C1135.22 487.421 1129.71 485.952 1124.07 485.623C1124.71 480.07 1124.23 474.445 1122.66 469.081C1121.08 463.717 1118.45 458.724 1114.91 454.397L1118.41 451.491C1118.65 451.275 1118.8 450.973 1118.83 450.648C1118.86 450.323 1118.76 450 1118.56 449.745C1118.34 449.503 1118.04 449.354 1117.72 449.331C1117.39 449.309 1117.07 449.414 1116.83 449.625L1087.09 474.515C1086.82 474.698 1086.64 474.977 1086.59 475.293C1086.53 475.608 1086.6 475.933 1086.78 476.196C1086.96 476.459 1087.24 476.638 1087.56 476.695C1087.87 476.752 1088.2 476.682 1088.46 476.499L1092.15 473.402C1095.8 477.637 1100.25 481.098 1105.26 483.578C1110.26 486.058 1115.72 487.508 1121.29 487.841C1120.64 493.451 1121.12 499.136 1122.73 504.552C1124.33 509.969 1127.01 515.005 1130.61 519.356L1127.23 522.389C1126.99 522.606 1126.83 522.907 1126.81 523.233C1126.78 523.558 1126.88 523.881 1127.08 524.135C1127.3 524.378 1127.6 524.527 1127.92 524.55C1128.24 524.572 1128.56 524.467 1128.81 524.256L1158.58 499.349C1158.72 499.241 1158.83 499.106 1158.9 498.952C1158.98 498.798 1159.02 498.629 1159.03 498.457C1159.04 498.285 1159.01 498.113 1158.94 497.954C1158.88 497.794 1158.78 497.651 1158.65 497.533V497.533ZM1094.14 472.025L1113.14 456.075C1116.46 460.152 1118.93 464.85 1120.41 469.893C1121.89 474.936 1122.35 480.223 1121.76 485.446C1116.49 485.184 1111.33 483.86 1106.58 481.553C1101.84 479.247 1097.6 476.007 1094.14 472.025ZM1123.83 488.153C1129.16 488.446 1134.37 489.821 1139.16 492.197C1143.94 494.572 1148.19 497.896 1151.64 501.967L1132.58 517.95C1129.15 513.833 1126.6 509.058 1125.09 503.918C1123.57 498.779 1123.13 493.384 1123.78 488.066L1123.83 488.153Z" fill="#409EFF"/>
<path d="M1513.79 390.832C1513.53 391.015 1513.2 391.085 1512.89 391.029C1512.57 390.972 1512.29 390.792 1512.11 390.529C1511.93 390.266 1511.85 389.941 1511.91 389.626C1511.97 389.311 1512.15 389.031 1512.41 388.848L1525.58 377.77C1525.71 377.667 1525.85 377.588 1526 377.54C1526.16 377.492 1526.32 377.476 1526.48 377.491C1526.64 377.507 1526.79 377.554 1526.93 377.631C1527.07 377.707 1527.2 377.811 1527.3 377.937C1527.41 378.055 1527.49 378.195 1527.54 378.346C1527.59 378.497 1527.61 378.658 1527.6 378.817C1527.59 378.976 1527.54 379.131 1527.47 379.272C1527.39 379.413 1527.29 379.538 1527.16 379.637C1514.5 390.265 1514.08 390.665 1513.79 390.832Z" fill="#409EFF"/>
<path d="M1550.37 360.14C1550.11 360.327 1549.79 360.402 1549.47 360.349C1549.15 360.297 1548.87 360.12 1548.68 359.86C1548.5 359.599 1548.42 359.274 1548.48 358.958C1548.53 358.642 1548.7 358.36 1548.96 358.173L1562.14 347.095C1562.26 346.991 1562.4 346.913 1562.55 346.865C1562.71 346.817 1562.87 346.8 1563.03 346.816C1563.19 346.831 1563.35 346.879 1563.49 346.955C1563.63 347.032 1563.75 347.136 1563.85 347.262C1563.96 347.382 1564.03 347.522 1564.08 347.673C1564.13 347.823 1564.15 347.982 1564.14 348.14C1564.12 348.298 1564.08 348.452 1564.01 348.593C1563.94 348.734 1563.84 348.86 1563.72 348.962C1550.92 359.748 1550.66 359.973 1550.37 360.14Z" fill="#409EFF"/>
<path d="M1528.86 358.242C1528.61 358.389 1528.32 358.443 1528.04 358.394C1527.75 358.345 1527.5 358.197 1527.31 357.975L1516.25 344.833C1516.05 344.578 1515.95 344.255 1515.98 343.93C1516.01 343.605 1516.16 343.303 1516.4 343.087C1516.65 342.886 1516.98 342.79 1517.3 342.821C1517.62 342.852 1517.91 343.007 1518.12 343.253L1529.17 356.442C1529.28 356.575 1529.36 356.731 1529.41 356.899C1529.45 357.067 1529.46 357.242 1529.43 357.413C1529.4 357.584 1529.33 357.747 1529.23 357.89C1529.14 358.033 1529.01 358.153 1528.86 358.242Z" fill="#409EFF"/>
<path d="M1559.58 394.807C1559.33 394.955 1559.04 395.009 1558.76 394.96C1558.47 394.911 1558.22 394.762 1558.04 394.541L1546.96 381.369C1546.85 381.247 1546.78 381.104 1546.73 380.951C1546.68 380.797 1546.66 380.636 1546.68 380.476C1546.69 380.316 1546.74 380.16 1546.82 380.019C1546.89 379.877 1547 379.753 1547.12 379.652C1547.24 379.549 1547.38 379.471 1547.54 379.422C1547.69 379.373 1547.84 379.355 1548 379.368C1548.16 379.38 1548.31 379.424 1548.46 379.497C1548.6 379.569 1548.72 379.669 1548.82 379.79L1559.87 392.978C1559.99 393.111 1560.08 393.268 1560.12 393.438C1560.17 393.608 1560.18 393.787 1560.16 393.962C1560.13 394.137 1560.06 394.303 1559.96 394.449C1559.86 394.595 1559.73 394.718 1559.58 394.807Z" fill="#409EFF"/>
<path d="M1523.46 368.614C1522.97 368.898 1524.26 368.925 1505.62 367.333C1505.31 367.306 1505.01 367.154 1504.81 366.911C1504.6 366.668 1504.5 366.354 1504.53 366.037C1504.54 365.875 1504.58 365.718 1504.66 365.574C1504.73 365.43 1504.83 365.303 1504.96 365.199C1505.08 365.095 1505.22 365.017 1505.38 364.97C1505.53 364.923 1505.69 364.907 1505.85 364.924L1523.08 366.555C1523.28 366.625 1523.46 366.747 1523.6 366.908C1523.74 367.07 1523.83 367.265 1523.87 367.474C1523.91 367.684 1523.89 367.899 1523.82 368.1C1523.75 368.3 1523.62 368.477 1523.46 368.614V368.614Z" fill="#409EFF"/>
<path d="M1571.01 372.767C1570.52 373.052 1571.81 373.079 1553.18 371.487C1552.86 371.46 1552.57 371.308 1552.36 371.065C1552.16 370.822 1552.06 370.507 1552.08 370.19C1552.09 370.029 1552.14 369.872 1552.21 369.728C1552.28 369.584 1552.38 369.456 1552.51 369.352C1552.63 369.249 1552.78 369.171 1552.93 369.123C1553.08 369.076 1553.25 369.061 1553.41 369.077L1570.59 370.622C1570.81 370.675 1571.01 370.791 1571.17 370.957C1571.33 371.123 1571.44 371.331 1571.49 371.557C1571.53 371.783 1571.51 372.017 1571.43 372.232C1571.34 372.446 1571.2 372.632 1571.01 372.767V372.767Z" fill="#409EFF"/>
<path d="M1540 354.743C1539.81 354.859 1539.59 354.919 1539.36 354.917C1539.14 354.915 1538.92 354.851 1538.73 354.732C1538.54 354.613 1538.39 354.443 1538.29 354.242C1538.2 354.041 1538.16 353.817 1538.18 353.595L1539.66 336.45C1539.7 336.131 1539.86 335.839 1540.11 335.632C1540.35 335.426 1540.67 335.32 1540.99 335.337C1541.15 335.348 1541.31 335.392 1541.45 335.465C1541.6 335.538 1541.72 335.64 1541.83 335.763C1541.93 335.887 1542.01 336.031 1542.06 336.185C1542.1 336.34 1542.12 336.502 1542.1 336.663L1540.62 353.808C1540.6 354.002 1540.53 354.189 1540.42 354.352C1540.32 354.515 1540.17 354.649 1540 354.743V354.743Z" fill="#409EFF"/>
<path d="M1535.83 402.268C1535.64 402.383 1535.42 402.444 1535.19 402.442C1534.97 402.44 1534.75 402.375 1534.56 402.256C1534.37 402.137 1534.22 401.967 1534.12 401.767C1534.03 401.566 1533.99 401.341 1534.01 401.119L1535.49 383.974C1535.53 383.652 1535.68 383.355 1535.93 383.147C1536.18 382.939 1536.5 382.836 1536.82 382.861C1537.14 382.9 1537.43 383.059 1537.64 383.305C1537.84 383.551 1537.95 383.866 1537.93 384.187L1536.38 401.411C1536.35 401.584 1536.29 401.75 1536.19 401.898C1536.1 402.046 1535.98 402.172 1535.83 402.268V402.268Z" fill="#409EFF"/>
<path d="M1285.69 803.335L1256.93 800.839L1259.57 771.99C1259.58 771.829 1259.57 771.667 1259.52 771.512C1259.47 771.358 1259.4 771.214 1259.29 771.091C1259.19 770.967 1259.06 770.865 1258.92 770.792C1258.77 770.719 1258.61 770.675 1258.45 770.664C1258.13 770.647 1257.82 770.753 1257.57 770.96C1257.33 771.166 1257.17 771.458 1257.13 771.777L1254.49 800.626L1225.64 797.985C1225.32 797.959 1225.01 798.06 1224.76 798.266C1224.52 798.471 1224.37 798.764 1224.34 799.081C1224.32 799.242 1224.34 799.404 1224.39 799.559C1224.43 799.713 1224.51 799.857 1224.62 799.98C1224.72 800.104 1224.85 800.206 1224.99 800.279C1225.13 800.352 1225.29 800.396 1225.45 800.407L1254.3 803.048L1251.65 831.868C1251.66 832.165 1251.78 832.446 1251.99 832.66C1252.2 832.873 1252.48 833.005 1252.77 833.031C1253.07 833.057 1253.36 832.975 1253.6 832.801C1253.85 832.626 1254.02 832.371 1254.08 832.081L1256.72 803.232L1285.57 805.873C1285.91 805.889 1286.24 805.77 1286.49 805.543C1286.74 805.316 1286.89 804.999 1286.9 804.663C1286.92 804.326 1286.8 803.997 1286.57 803.748C1286.34 803.499 1286.03 803.351 1285.69 803.335V803.335Z" fill="#409EFF"/>
<path d="M1600.37 681.903L1600.22 674.964C1600.22 674.804 1600.19 674.646 1600.13 674.499C1600.07 674.351 1599.98 674.218 1599.86 674.107C1599.75 673.996 1599.61 673.91 1599.46 673.854C1599.31 673.797 1599.15 673.772 1599 673.779C1598.68 673.78 1598.37 673.906 1598.15 674.13C1597.92 674.354 1597.8 674.657 1597.79 674.975C1597.94 681.914 1597.8 684.468 1597.9 685.45C1597.88 685.589 1597.9 685.73 1597.94 685.863C1597.98 685.996 1598.05 686.12 1598.14 686.226C1598.23 686.333 1598.34 686.42 1598.47 686.482C1598.59 686.545 1598.73 686.582 1598.87 686.59C1599.7 686.69 1601.97 686.614 1609.54 686.563C1609.87 686.557 1610.17 686.424 1610.4 686.192C1610.63 685.959 1610.76 685.647 1610.75 685.323C1610.74 685.001 1610.6 684.696 1610.37 684.471C1610.14 684.246 1609.84 684.116 1609.51 684.109L1601.49 684.186C1603.56 681.817 1606.32 680.165 1609.38 679.467C1612.45 678.77 1615.66 679.063 1618.54 680.305C1621.43 681.547 1623.85 683.673 1625.45 686.377C1627.05 689.082 1627.75 692.224 1627.45 695.353C1627.15 698.481 1625.87 701.434 1623.78 703.785C1621.7 706.136 1618.92 707.764 1615.85 708.435C1612.78 709.106 1609.57 708.785 1606.7 707.518C1603.82 706.251 1601.42 704.104 1599.84 701.386C1599.67 701.109 1599.4 700.907 1599.09 700.823C1598.78 700.738 1598.44 700.778 1598.15 700.934C1597.88 701.102 1597.68 701.371 1597.6 701.684C1597.52 701.996 1597.57 702.327 1597.73 702.606C1599.55 705.73 1602.31 708.203 1605.61 709.678C1608.91 711.152 1612.6 711.553 1616.14 710.825C1619.68 710.097 1622.9 708.275 1625.36 705.617C1627.81 702.96 1629.37 699.599 1629.81 696.01C1630.25 692.421 1629.55 688.783 1627.82 685.61C1626.08 682.437 1623.4 679.888 1620.14 678.322C1616.88 676.757 1613.21 676.253 1609.65 676.883C1606.09 677.513 1602.81 679.244 1600.29 681.833L1600.37 681.903Z" fill="#409EFF"/>
<path d="M1630.56 423.101C1604.13 425.316 1577.46 445.231 1548.29 450.456C1547.97 444.695 1544.8 436.26 1540.25 436.533C1514.04 432.641 1431.1 424.831 1409.09 424.07C1413.68 419.183 1466.13 363.161 1479.57 349.611C1483.94 346.353 1478.98 337.562 1475.74 333.144C1482.5 328.128 1489.66 323.672 1497.14 319.82C1497.4 319.715 1497.61 319.515 1497.73 319.261C1497.85 319.006 1497.87 318.716 1497.78 318.449C1488.19 280.72 1469.17 241.76 1461.44 226.771C1461.34 226.563 1461.19 226.388 1460.99 226.267C1460.8 226.145 1460.57 226.082 1460.34 226.085C1460.11 226.088 1459.89 226.156 1459.7 226.283C1459.5 226.409 1459.35 226.587 1459.26 226.797C1445.01 256.059 1456.34 281.898 1448.99 302.195C1443.47 297.241 1438.65 295.583 1436.39 297.89C1340.4 394.801 1337.69 399.141 1331.73 409.727C1325.45 420.84 1322.9 442.571 1313.92 503.682C1312.89 504.851 1311.39 506.723 1309.38 509.195C1307.34 503.313 1302.08 489.867 1298.55 482.022C1298.12 481.235 1297.49 480.566 1296.74 480.074C1295.98 479.582 1295.12 479.281 1294.22 479.198C1290.93 478.981 1287.64 479.559 1284.62 480.882C1274.99 466.801 1251.29 432.509 1246.98 425.041C1241.3 415.2 1241.54 397.65 1241.56 396.945C1241.68 392.206 1239.45 388.476 1233.95 379.687C1232.78 377.661 1231.13 376.876 1229.78 377.467C1227.57 378.393 1227.15 382.416 1228.63 388.856C1229.85 394.174 1228.28 399.748 1226.06 400.571C1223.83 401.393 1221.62 398.771 1218.98 393.928C1214.17 385.127 1208.45 371.874 1206.81 368.378C1205.18 364.882 1202.7 362.53 1200.73 363.248C1198.75 363.966 1198.08 367.36 1199.36 372.18C1200.11 375.219 1201.6 380.88 1203.23 386.308C1199.86 380.999 1197.06 376.211 1194.22 371.44C1192.09 367.735 1189.6 366.162 1187.8 367.003C1186.01 367.845 1185.58 371.375 1187.31 376.047C1188.81 379.971 1190.79 384.883 1192.81 389.509C1189.64 385.431 1187.7 382.658 1185.84 380.104C1182.22 375.245 1179.89 375.819 1178.96 376.354C1176.96 377.507 1177.17 380.939 1179.38 385.493C1181.4 389.46 1183.54 393.435 1185.71 397.272C1183.95 395.282 1182.75 393.886 1180.85 391.664C1178.13 388.488 1175.59 387.368 1174.04 388.494C1172.5 389.62 1172.82 393.06 1175.26 397.286C1179.61 405.008 1184.58 412.362 1190.12 419.275C1195.05 424.684 1210.02 437.576 1213.76 441.171C1211.8 450.018 1219.39 461.617 1228.06 462.055C1228.06 462.055 1245.02 491.435 1248.64 497.716C1243.97 502.19 1244.86 505.071 1245.96 506.443C1248 510.438 1253.37 520.149 1256.82 526.381C1239.52 542.543 1206.34 575.517 1185.99 582.713C1186.35 576.362 1185.37 570.007 1183.13 564.056C1180.88 558.104 1177.42 552.688 1172.95 548.156C1168.49 543.624 1163.13 540.076 1157.21 537.74C1151.3 535.404 1144.96 534.332 1138.6 534.593C1132.25 534.854 1126.01 536.441 1120.31 539.254C1114.6 542.067 1109.55 546.042 1105.47 550.925C1101.4 555.807 1098.39 561.489 1096.64 567.604C1094.89 573.72 1094.44 580.134 1095.32 586.433C1090.61 585.073 1085.6 585.152 1080.94 586.659C1076.28 588.166 1072.17 591.032 1069.15 594.89C1066.13 598.748 1064.34 603.421 1063.99 608.308C1063.65 613.196 1064.77 618.074 1067.22 622.317C1069.67 626.561 1073.33 629.974 1077.74 632.12C1082.14 634.265 1087.09 635.045 1091.94 634.358C1096.79 633.671 1101.33 631.549 1104.96 628.266C1108.6 624.982 1111.17 620.685 1112.35 615.929C1121.2 622.809 1132.28 626.188 1143.47 625.423C1154.66 624.657 1165.17 619.801 1173.01 611.778C1184.6 625.159 1188.01 636.889 1193.91 653.051C1206.79 688.726 1223.01 733.005 1240.58 740.575C1259.62 748.881 1271.81 738.521 1309.47 716.779C1315.27 713.855 1312.28 704.197 1309.02 698.208C1318.26 690.286 1329.58 680.352 1337.47 673.365C1347.68 664.306 1348.5 658.163 1349.37 651.057C1349.83 647.241 1349.77 648.203 1350.31 644.457C1351.25 638.396 1352 634.683 1355.16 634.552C1364.88 634.194 1381.21 632.869 1381.38 628.292C1381.42 627.226 1380.56 625.99 1378.04 625.707C1372.91 625.116 1368.89 624.504 1365.36 623.803C1370.48 621.968 1387.54 615.433 1386.14 610.187C1385.83 609.127 1384.62 608.092 1382.18 608.613L1367.7 611.952C1372.19 609.557 1385.92 601.785 1383.86 597.146C1383.6 596.647 1383.18 596.249 1382.67 596.018C1382.16 595.788 1381.58 595.738 1381.04 595.878C1394.77 581.352 1398.95 555.435 1399.17 527.749C1404.61 516.507 1409.7 505.883 1415.23 494.86C1434.35 495.899 1523.1 500.619 1538.7 500.761C1544.33 500.827 1546.7 492.285 1547.26 486.711C1553.11 488.372 1559.05 489.725 1565.04 490.765C1569.15 491.207 1612.01 451.797 1631.44 424.411C1631.47 424.124 1631.4 423.834 1631.24 423.594C1631.08 423.353 1630.84 423.178 1630.56 423.101V423.101ZM1452.62 298.518C1457.33 278.934 1449.05 255.771 1460.44 230.05C1468.66 246.223 1486.06 282.645 1495.19 318.05C1483.92 323.939 1473.4 331.177 1463.87 339.606C1456.32 332.231 1449.57 324.067 1443.75 315.253C1448.12 310.544 1451.18 304.775 1452.62 298.518V298.518ZM1288.79 491.054C1278.76 497.632 1267.77 502.611 1256.21 505.812C1253.12 500.457 1230.88 461.931 1230.88 461.931C1233.42 461.342 1235.68 459.913 1237.31 457.875C1238.94 455.837 1239.82 453.309 1239.83 450.702C1245.05 447.904 1249.71 444.168 1253.58 439.679C1264 455.001 1283.48 483.122 1288.79 491.054ZM1192.06 417.691C1186.63 410.902 1181.77 403.682 1177.51 396.102C1176.31 394.487 1175.62 392.545 1175.53 390.531C1175.73 390.414 1177.02 390.831 1179.14 393.309C1192.2 408.503 1190.04 404.5 1193.08 409.229C1193.26 409.455 1193.53 409.608 1193.81 409.66C1194.1 409.712 1194.4 409.661 1194.65 409.514C1194.91 409.368 1195.1 409.136 1195.2 408.861C1195.3 408.585 1195.29 408.283 1195.19 408.009C1190.27 400.423 1185.75 392.588 1181.64 384.534C1179.79 380.736 1180.01 378.837 1180.29 378.595C1180.58 378.353 1181.8 378.804 1183.92 381.672C1187.93 387.076 1191.22 391.775 1196.75 398.272C1197.63 399.806 1198.19 401.3 1198.73 402.301C1198.91 402.527 1199.17 402.68 1199.46 402.732C1199.75 402.785 1200.05 402.733 1200.3 402.587C1200.55 402.44 1200.75 402.209 1200.85 401.933C1200.95 401.657 1200.94 401.355 1200.84 401.081C1197.9 395.522 1192.36 382.588 1189.73 375.154C1188.27 371.213 1188.69 369.346 1188.98 369.179C1189.27 369.012 1190.51 369.491 1192.35 372.601C1206.79 396.876 1205.69 393.498 1206.81 396.246C1206.93 396.546 1207.16 396.788 1207.45 396.918C1207.75 397.047 1208.09 397.054 1208.39 396.937C1208.69 396.82 1208.93 396.588 1209.06 396.292C1209.19 395.996 1209.19 395.661 1209.08 395.361C1206.24 387.542 1203.85 379.565 1201.92 371.472C1200.78 367.078 1201.57 365.578 1201.77 365.461C1201.98 365.344 1203.27 365.985 1204.82 369.336C1206.37 372.687 1212.04 385.854 1217.05 395.002C1221.38 402.963 1224.95 403.602 1227.16 402.751C1231.17 401.207 1232.53 393.863 1231.2 388.223C1229.76 381.915 1230.61 379.843 1230.83 379.634C1231.38 379.918 1231.81 380.37 1232.08 380.922C1237.31 389.249 1239.43 392.775 1239.32 396.81C1239.16 405.624 1240.64 418.743 1245.32 426.653C1241.92 430.663 1237.9 434.095 1233.4 436.817C1225.96 430.151 1217.74 432.965 1214.85 438.724C1210.34 434.578 1196.45 422.488 1192.06 417.691ZM1219.97 436.545C1230.76 430.043 1244.91 451.55 1232.7 458.602C1221.8 464.857 1209.45 442.927 1219.97 436.545V436.545ZM1154.17 594.177C1152.61 593.686 1151.49 593.679 1150.85 594.121C1143.94 598.729 1138.54 593.513 1146.34 590.708C1148.27 590.053 1148.69 588.965 1148.73 588.169C1148.77 585.636 1144.03 583.165 1139.47 581.283C1142.87 575.435 1145.4 569.124 1146.98 562.548C1165.41 565.65 1177.3 571.136 1178.14 576.94C1178.71 580.739 1174.59 584.895 1166.21 588.962C1165.95 589.075 1165.74 589.276 1165.61 589.53C1165.49 589.783 1165.45 590.072 1165.52 590.346C1165.59 590.621 1165.75 590.863 1165.98 591.031C1166.2 591.199 1166.48 591.281 1166.76 591.264C1176.5 590.889 1190.79 583.952 1196.81 580.476C1199.42 578.972 1202.17 577.384 1204.85 575.337C1210.47 593.358 1205.08 614.84 1189.97 634.795C1186.1 625.611 1180.76 617.117 1174.17 609.642C1174.17 609.642 1174.17 609.642 1174.05 609.44C1168.69 602.842 1161.87 597.586 1154.12 594.09L1154.17 594.177ZM1241.76 738.812C1221.53 730.039 1200.32 662.011 1191 637.518C1207.55 616.384 1213.29 593.234 1206.93 573.939C1221.93 563.006 1241.26 544.55 1258.28 528.853C1259.12 530.301 1259.76 531.401 1259.96 531.748C1260.03 531.889 1260.14 532.014 1260.26 532.115C1260.39 532.215 1260.53 532.29 1260.69 532.333C1260.84 532.377 1261 532.389 1261.16 532.369C1261.32 532.35 1261.48 532.298 1261.62 532.217C1261.9 532.056 1262.1 531.793 1262.19 531.483C1262.28 531.172 1262.24 530.84 1262.09 530.557C1260.82 528.357 1253.78 515.707 1249.94 508.585C1254.79 509.372 1263.16 507.087 1274.29 501.897C1280.79 498.842 1294.12 492.187 1297.93 486.088C1301.69 494.877 1306.42 507.471 1307.77 511.283C1298.41 523.211 1282.89 543.668 1276.58 552.448C1232.96 556.175 1227.15 562.962 1213.34 574.872C1213.22 574.974 1213.12 575.1 1213.05 575.241C1212.97 575.382 1212.93 575.536 1212.92 575.694C1212.9 575.852 1212.92 576.011 1212.97 576.161C1213.02 576.312 1213.1 576.452 1213.2 576.572C1213.3 576.696 1213.43 576.798 1213.58 576.872C1213.72 576.946 1213.88 576.989 1214.04 577.001C1214.2 577.012 1214.36 576.99 1214.52 576.938C1214.67 576.885 1214.81 576.802 1214.93 576.693C1228.25 565.142 1233.85 558.517 1276.83 554.889C1286.55 563.635 1297.67 588.708 1292.83 607.866C1287.44 613.371 1281.46 619.061 1275.46 624.572C1267.42 627.044 1259.18 628.767 1250.83 629.719C1250.77 628.869 1250.73 628.003 1250.68 627.182C1250.67 627.023 1250.64 626.867 1250.57 626.722C1250.51 626.578 1250.41 626.447 1250.3 626.339C1250.18 626.23 1250.04 626.146 1249.89 626.09C1249.74 626.035 1249.59 626.009 1249.43 626.015C1249.27 626.02 1249.11 626.057 1248.97 626.123C1248.82 626.189 1248.69 626.283 1248.58 626.399C1248.48 626.516 1248.39 626.652 1248.33 626.801C1248.28 626.95 1248.25 627.109 1248.26 627.268C1249.33 644.384 1252.02 661.361 1256.3 677.967C1252.13 681.497 1248.25 684.74 1245.56 686.907C1245.43 687.11 1245.36 687.348 1245.36 687.592C1245.36 687.836 1245.44 688.073 1245.58 688.272C1245.72 688.472 1245.92 688.624 1246.14 688.709C1246.37 688.793 1246.62 688.806 1246.86 688.747C1247.47 688.396 1267.01 671.904 1272.55 667.394C1272.12 672.076 1274.2 680.561 1284.03 695.77C1288.38 702.516 1296.97 714.579 1304.56 717.103C1270.53 737.1 1259.04 746.206 1241.71 738.725L1241.76 738.812ZM1321.71 635.033C1320.34 637.787 1318.71 640.406 1316.85 642.857C1314.51 644.749 1298.9 656.228 1285.79 665.341C1282.79 661.867 1278.34 659.918 1274.73 662.695C1271.13 665.472 1264.56 671.003 1258.31 676.035C1255.9 666.62 1254.05 657.071 1252.76 647.437C1266.22 636.043 1281.69 622.476 1294.08 609.768C1303.04 614.486 1312.67 617.816 1322.63 619.644C1322.73 624.763 1322.4 629.881 1321.66 634.946L1321.71 635.033ZM1324.05 604.12C1324.05 604.12 1326.97 604.829 1331.09 617.849C1329.02 621.432 1326.84 625.471 1324.76 629.22C1325.99 613.962 1323.35 605.989 1324 604.034L1324.05 604.12ZM1358.06 614.628C1356 615.006 1354.04 615.363 1352.23 615.636C1352.07 615.66 1351.92 615.715 1351.78 615.798C1351.65 615.881 1351.53 615.991 1351.43 616.12C1351.34 616.25 1351.27 616.397 1351.24 616.554C1351.2 616.71 1351.2 616.871 1351.22 617.029C1351.24 617.187 1351.3 617.338 1351.38 617.475C1351.46 617.611 1351.56 617.731 1351.69 617.826C1351.82 617.922 1351.96 617.991 1352.12 618.03C1352.27 618.07 1352.43 618.078 1352.59 618.056C1361.08 616.782 1372.76 613.82 1382.86 611.536C1383.51 611.393 1383.89 611.445 1383.91 611.353C1383.81 612.378 1379.58 617.214 1360.67 623.426L1355.72 622.42C1355.41 622.361 1355.08 622.43 1354.82 622.612C1354.55 622.793 1354.37 623.072 1354.31 623.388C1354.26 623.703 1354.32 624.028 1354.51 624.293C1354.69 624.557 1354.97 624.738 1355.28 624.797C1363.91 626.375 1368.89 627.514 1377.97 628.527C1378.29 628.57 1378.6 628.646 1378.91 628.755C1377.89 629.534 1373.35 631.963 1355.27 632.525C1349.13 632.788 1348.85 640.397 1347.74 647.023C1346.14 656.552 1347.37 661.899 1336.04 671.953C1324.05 682.736 1302.89 700.972 1295.38 707.008C1287.15 697.474 1280.63 686.581 1276.14 674.815C1287.88 667.222 1313.76 648.538 1318.33 644.82C1321.61 642.152 1334.74 613.542 1339.91 609.203C1341.29 608.057 1362.56 596.433 1370.79 591.836C1371.34 591.499 1371.96 591.288 1372.6 591.218C1372.6 591.218 1372.94 595.077 1355 606.665C1352.49 607.534 1350.18 608.332 1348.18 608.946C1347.87 609.042 1347.61 609.254 1347.46 609.538C1347.3 609.821 1347.27 610.153 1347.35 610.463C1347.46 610.766 1347.67 611.019 1347.95 611.172C1348.23 611.324 1348.56 611.365 1348.87 611.286C1357.75 608.551 1372.13 602.837 1380.8 599.142C1381.38 598.807 1381.76 598.86 1381.83 598.78C1381.75 599.788 1377.85 605.398 1358.01 614.541L1358.06 614.628ZM1374.73 598.982C1371.41 600.319 1367.84 601.761 1364.27 603.129C1370.68 598.387 1376.52 592.93 1374.68 589.94C1373.84 588.493 1371.71 588.411 1369.57 589.648C1358.95 595.587 1339.85 605.957 1338.29 607.324C1336.1 609.648 1334.23 612.248 1332.72 615.056C1329.58 605.75 1326.33 601.063 1323.49 601.743C1321.83 602.157 1321.03 604.167 1321.57 606.71C1322.1 610.252 1322.44 613.822 1322.57 617.402C1313.05 615.566 1303.86 612.344 1295.28 607.839C1299.96 587.927 1288.98 563.039 1278.8 553.483C1286.83 542.473 1305.34 518.168 1313.25 508.349C1311.38 521.01 1309.25 535.438 1306.76 551.849C1306.74 552.007 1306.74 552.168 1306.78 552.322C1306.82 552.477 1306.89 552.622 1306.99 552.75C1307.08 552.878 1307.2 552.985 1307.34 553.067C1307.48 553.149 1307.63 553.202 1307.79 553.225C1307.94 553.248 1308.1 553.24 1308.26 553.201C1308.41 553.162 1308.56 553.093 1308.69 552.997C1308.81 552.902 1308.92 552.783 1309 552.646C1309.08 552.509 1309.14 552.357 1309.16 552.199C1325.28 445.019 1327.24 422.619 1333.83 410.828C1339.59 400.749 1343.3 396.409 1435.27 302.435C1435.97 308.053 1441.35 317.299 1450.53 328.862C1455.7 335.215 1467.38 348.545 1475.38 350.251C1461.89 363.984 1396.02 434.319 1390.53 440.114C1390.41 440.243 1390.32 440.395 1390.26 440.561C1390.2 440.727 1390.18 440.903 1390.2 441.077C1394.08 484.105 1409.32 573.261 1374.68 598.895L1374.73 598.982ZM1534.93 498.772C1511.6 498.001 1430.79 493.672 1414.61 492.786C1414.37 492.771 1414.13 492.826 1413.93 492.945C1413.72 493.064 1413.56 493.241 1413.45 493.455L1409.51 501.403C1406.25 489.08 1397.55 465.853 1394.28 456.166C1393.72 450.854 1393.21 445.823 1392.8 441.31L1406.92 426.522C1423.75 426.725 1507.32 434.511 1536.91 438.575C1531.13 444.927 1529.7 460.107 1529.51 468.669C1529.11 484.685 1531.6 494.554 1534.96 498.829L1534.93 498.772ZM1565.01 488.85C1554 487.489 1550.11 483.095 1532.58 484.148C1531.38 474.136 1531.6 464.006 1533.23 454.055C1567.86 454.867 1598.62 429.54 1628.04 425.753C1613.88 445.007 1583.28 476.642 1565.05 488.907L1565.01 488.85Z" fill="#409EFF"/>
<path d="M233.432 268.026L327 -107.653L34.1681 -353L-367.694 -215.707L-413 84.9274L-245.422 268.026H233.432Z" fill="#409EFF"/>
<path d="M1497.49 157.984C1504.39 157.984 1509.98 152.391 1509.98 145.492C1509.98 138.593 1504.39 133 1497.49 133C1490.59 133 1485 138.593 1485 145.492C1485 152.391 1490.59 157.984 1497.49 157.984Z" fill="black" stroke="black" stroke-width="2.3125" stroke-miterlimit="10"/>
<path d="M1635.49 795.984C1642.39 795.984 1647.98 790.391 1647.98 783.492C1647.98 776.593 1642.39 771 1635.49 771C1628.59 771 1623 776.593 1623 783.492C1623 790.391 1628.59 795.984 1635.49 795.984Z" fill="#444444" stroke="#409EFF" stroke-width="2.3125" stroke-miterlimit="10"/>
<path d="M1733.4 244H1587.87C1584.63 244 1582 246.628 1582 249.869V250.137C1582 253.379 1584.63 256.006 1587.87 256.006H1733.4C1736.64 256.006 1739.27 253.379 1739.27 250.137V249.869C1739.27 246.628 1736.64 244 1733.4 244Z" fill="#444444" stroke="#409EFF" stroke-width="2.3125" stroke-miterlimit="10"/>
<path d="M1174.52 840H1067.87C1064.63 840 1062 842.628 1062 845.869V846.137C1062 849.379 1064.63 852.007 1067.87 852.007H1174.52C1177.76 852.007 1180.39 849.379 1180.39 846.137V845.869C1180.39 842.628 1177.76 840 1174.52 840Z" fill="#444444" stroke="#409EFF" stroke-width="2.3125" stroke-miterlimit="10"/>
<path d="M1732.28 624H1664.72C1662.66 624 1661 626.626 1661 629.866V630.134C1661 633.374 1662.66 636 1664.72 636H1732.28C1734.34 636 1736 633.374 1736 630.134V629.866C1736 626.626 1734.34 624 1732.28 624Z" fill="#444444" stroke="#409EFF" stroke-width="2.3125" stroke-miterlimit="10"/>
<path d="M1466.91 801.877C1469.86 801.877 1472.24 799.49 1472.24 796.545C1472.24 793.599 1469.86 791.212 1466.91 791.212C1463.97 791.212 1461.58 793.599 1461.58 796.545C1461.58 799.49 1463.97 801.877 1466.91 801.877Z" fill="#444444" stroke="#409EFF" stroke-width="2.3125" stroke-miterlimit="10"/>
<path d="M1021.33 740.665C1024.28 740.665 1026.67 738.278 1026.67 735.333C1026.67 732.387 1024.28 730 1021.33 730C1018.39 730 1016 732.387 1016 735.333C1016 738.278 1018.39 740.665 1021.33 740.665Z" fill="#444444" stroke="#409EFF" stroke-width="2.3125" stroke-miterlimit="10"/>
<path d="M1003.96 305.92C1010.57 305.92 1015.92 300.566 1015.92 293.96C1015.92 287.355 1010.57 282 1003.96 282C997.355 282 992 287.355 992 293.96C992 300.566 997.355 305.92 1003.96 305.92Z" fill="#444444" stroke="#409EFF" stroke-width="2.3125" stroke-miterlimit="10"/>
<path d="M1803.25 458.665C1806.19 458.665 1808.58 456.278 1808.58 453.333C1808.58 450.388 1806.19 448 1803.25 448C1800.3 448 1797.92 450.388 1797.92 453.333C1797.92 456.278 1800.3 458.665 1803.25 458.665Z" fill="#444444" stroke="#409EFF" stroke-width="2.3125" stroke-miterlimit="10"/>
</g>
<defs>
<clipPath id="clip0_4_9270">
<rect width="1920" height="1080" fill="white"/>
</clipPath>
</defs>
</svg>
